<svg id="coffee_brewer" data-name="coffee brewer" xmlns="http://www.w3.org/2000/svg" xmlns:xlink="http://www.w3.org/1999/xlink" viewBox="0 0 217 493.64"><defs><style>.cls-1{fill:url(#linear-gradient);}.cls-2{fill:url(#linear-gradient-2);}.cls-3{fill:url(#linear-gradient-3);}.cls-4{fill:url(#linear-gradient-4);}.cls-5,.cls-9{fill:#333;}.cls-5{stroke:#4d4d4d;stroke-miterlimit:10;stroke-width:2px;}.cls-6{fill:url(#linear-gradient-5);}.cls-7{fill:url(#linear-gradient-6);}.cls-8{fill:none;}.cls-10,.cls-11{fill:lime;}.cls-11,.cls-13{fill-opacity:0.2;}.cls-12,.cls-13{fill:#ed1c24;}.cls-14{fill:#f2f2f2;}.cls-15{fill-opacity:0.8;fill:url(#linear-gradient-7);}.cls-16{fill:url(#linear-gradient-8);}.cls-17{fill:#999;}</style><linearGradient id="linear-gradient" x1="43.5" y1="465.66" x2="43.5" y2="493.52" gradientUnits="userSpaceOnUse"><stop offset="0" stop-color="#080808"/><stop offset="1" stop-color="#353535"/></linearGradient><linearGradient id="linear-gradient-2" x1="173.5" y1="464.66" x2="173.5" y2="492.52" xlink:href="#linear-gradient"/><linearGradient id="linear-gradient-3" x1="572.5" y1="60.36" x2="572.5" y2="159" gradientUnits="userSpaceOnUse"><stop offset="0" stop-color="#c4c4c4"/><stop offset="0.16" stop-color="#9f9f9f"/><stop offset="0.3" stop-color="#7d7d7d"/><stop offset="0.77" stop-color="#787878"/><stop offset="1" stop-color="#a3a3a3"/></linearGradient><linearGradient id="linear-gradient-4" x1="572.5" y1="171.85" x2="572.5" y2="524.45" xlink:href="#linear-gradient-3"/><linearGradient id="linear-gradient-5" x1="108.5" y1="198.92" x2="108.5" y2="398.76" gradientUnits="userSpaceOnUse"><stop offset="0" stop-color="#c4c4c4"/><stop offset="0.16" stop-color="#9f9f9f"/><stop offset="0.3" stop-color="#7d7d7d"/><stop offset="0.62" stop-color="#8c8c8c"/><stop offset="1" stop-color="#a3a3a3"/></linearGradient><linearGradient id="linear-gradient-6" x1="108" y1="101.02" x2="108" y2="166.35" gradientUnits="userSpaceOnUse"><stop offset="0" stop-color="#cfcfcf"/><stop offset="0.09" stop-color="#aaa"/><stop offset="0.2" stop-color="#7d7d7d"/><stop offset="0.57" stop-color="#8c8c8c"/><stop offset="1" stop-color="#a3a3a3"/></linearGradient><linearGradient id="linear-gradient-7" x1="102.33" y1="280.64" x2="113.67" y2="280.64" gradientUnits="userSpaceOnUse"><stop offset="0" stop-color="#e3e3e3"/><stop offset="0.12" stop-color="#c4c4c4"/><stop offset="0.3" stop-color="#9d9d9d"/><stop offset="0.44" stop-color="#868686"/><stop offset="0.53" stop-color="#7d7d7d"/><stop offset="0.62" stop-color="#858585"/><stop offset="0.75" stop-color="#999"/><stop offset="0.92" stop-color="#bbb"/><stop offset="1" stop-color="#cfcfcf"/></linearGradient><linearGradient id="linear-gradient-8" x1="108" y1="327.91" x2="108" y2="385.21" gradientUnits="userSpaceOnUse"><stop offset="0" stop-color="#424242"/><stop offset="0.13" stop-color="#676767"/><stop offset="0.3" stop-color="#9e9e9e"/><stop offset="0.65" stop-color="#969696"/><stop offset="1" stop-color="#d9d9d9"/></linearGradient></defs><title>brewer</title><polygon class="cls-1" points="55 493.64 32 493.64 29 464.64 58 464.64 55 493.64"/><polygon class="cls-2" points="185 492.64 162 492.64 159 463.64 188 463.64 185 492.64"/><path class="cls-3" d="M681,68.4V159H464V68.4a8,8,0,0,1,8-8H673A8,8,0,0,1,681,68.4Z" transform="translate(-464 -60.36)"/><path class="cls-4" d="M681,159V489.64C681,514.2,669.2,526,654.64,526H490.36C475.8,526,464,514.2,464,489.64V159Z" transform="translate(-464 -60.36)"/><rect class="cls-5" x="48" y="181.64" width="120" height="20" rx="5.66" ry="5.66"/><path class="cls-6" d="M15.66,191.64H201.34A15.66,15.66,0,0,1,217,207.3v180.8a11.55,11.55,0,0,1-11.55,11.55H11.55A11.55,11.55,0,0,1,0,388.09V207.3a15.66,15.66,0,0,1,15.66-15.66Z"/><polygon class="cls-7" points="153 166.64 63 166.64 43.31 113.7 43 98.64 173 98.64 173 112.64 153 166.64"/><path class="cls-8" d="M681,159" transform="translate(-464 -60.36)"/><path class="cls-8" d="M464,159" transform="translate(-464 -60.36)"/><polygon class="cls-9" points="113.18 166.64 102.82 166.64 101.82 133.64 102.82 100.64 113.18 100.64 114.18 133.64 113.18 166.64"/><rect class="cls-9" x="48" y="21.64" width="120" height="64"/><rect class="cls-10" x="112" y="66.64" width="18" height="12"/><rect class="cls-11" x="108.4" y="64.24" width="25.2" height="16.8" rx="3.37" ry="3.37"/><rect class="cls-12" x="172" y="438.64" width="18" height="12"/><rect class="cls-13" x="168.4" y="436.24" width="25.2" height="16.8" rx="3.37" ry="3.37"/><rect class="cls-14" x="142" y="66.64" width="18" height="12"/><rect class="cls-15" x="102" y="213.64" width="12" height="134"/><polygon class="cls-16" points="115 376.48 101 376.48 99.5 361.64 93.67 347.4 93 326.64 123 326.64 122.33 347.4 116.5 361.64 115 376.48"/><rect class="cls-9" x="89" y="321.64" width="38" height="10"/><rect class="cls-9" x="98" y="313.64" width="20" height="14"/><path class="cls-9" d="M581.16,348.25l-7.53,24.37a3,3,0,0,0-.12.43,4.94,4.94,0,0,1-.79,1.88,3.74,3.74,0,0,1-1.44,0,4.94,4.94,0,0,1-.79-1.88,3,3,0,0,0-.12-.43l-7.53-24.37h18.32m7-9H555.88c-2.53,0-4.42,2.07-3.92,4.28l9.81,31.75c1.31,5.1,4.38,8.72,10.23,8.72h0c5.85,0,8.92-3.62,10.23-8.72L592,343.53c.5-2.21-1.39-4.28-3.92-4.28Z" transform="translate(-464 -60.36)"/><rect class="cls-17" x="102" y="213.64" width="12" height="6"/></svg>