<svg id="coffee_mug" data-name="coffee mug" xmlns="http://www.w3.org/2000/svg" x='0px' y='0px' width='128px' height='128px' viewBox="0 0 714 407.67"><defs><style>.cls-1{fill:none;stroke:#fff;stroke-miterlimit:10;stroke-width:40px;}.cls-2{fill:#fff;}.cls-3{fill:#ededed;}</style></defs><title>coffee cup</title><path id="handle" class="cls-1" d="M917,577c0-37-30-47-67-47s-67,10-67,47a67,67,0,0,0,134,0Z" transform="translate(-223 -414)"/><path id="base" class="cls-2" d="M797,484.72c-.09-.61-.2-1.21-.3-1.81-.38.25-.77.49-1.15.72-62.36,39.56-165.88,60.54-283.07,60.54C395,544.17,291.17,523,228.88,483.29l-1.5-1c-.14.8-.28,1.59-.41,2.39a291.52,291.52,0,0,0-4,47.95,288.15,288.15,0,0,0,16.92,97.64C280,741.87,386.66,821.67,512,821.67s232-79.8,272.08-191.36A290.4,290.4,0,0,0,797,484.72Z" transform="translate(-223 -414)"/><ellipse id="rim" class="cls-2" cx="289" cy="73.5" rx="285" ry="73.5"/><path id="insideCup" class="cls-3" d="M755,495.58c0,9.95-11.74,19.28-32.34,27.31C680.85,539.2,602.55,550.17,512,550.17s-168.85-11-210.66-27.28c-20.6-8-32.34-17.36-32.34-27.31C269,465.44,376.85,441,512,441S755,465.44,755,495.58Z" transform="translate(-223 -414)"/></svg>