<svg id="miwk" xmlns="http://www.w3.org/2000/svg" viewBox="0 0 154.21 186.7"><defs><style>.cls-1{fill:#e6e6e6;}.cls-2{fill:none;}.cls-3{fill:#f2f2f2;}.cls-4{fill:#2e3192;}.cls-5{fill:#ccc;}</style></defs><title>2 milk</title><path class="cls-1" d="M1475.36,898.36v3.9a17.09,17.09,0,0,0-2.38-.16h-31.63v-3.74Z" transform="translate(-1381.25 -885.24)"/><path class="cls-2" d="M1421.81,921.88l-.39-.1s-5.52.75-6,3.37-9.47,29.19-6.27,43.26a17.68,17.68,0,0,0,.74,2.46c5.11,13.11,11.48,0,11.48,0s8.08-39.72,8.08-44.22A15.41,15.41,0,0,0,1421.81,921.88Z" transform="translate(-1381.25 -885.24)"/><path class="cls-3" d="M1523.82,932.93a14.25,14.25,0,0,0-6.69-8.12l-35.4-20.41a17.34,17.34,0,0,0-6.37-2.14,17.09,17.09,0,0,0-2.38-.16h-33.26a17.89,17.89,0,0,0-6.92,1.39l-21.59,9.14a14.59,14.59,0,0,0-8.69,9.65l-20.89,82.86a12.7,12.7,0,0,0-.38,3.06v26.63a12.61,12.61,0,0,0,.2,2.21c.88,4.93,4.79,24.16,12.55,28.07,2.53,1.27,8,2.4,14.52,3.35h0c11.75,1.72,27,2.91,34.76,3.44a17.69,17.69,0,0,0,9.47-2l3.09-1.63a17.84,17.84,0,0,1,15.24-.58l5.49,2.36a18,18,0,0,0,10.42,1.11l28.61-5.5a16.48,16.48,0,0,0,8.46-4.32,13.89,13.89,0,0,0,3.31-5l7.26-19.2a12.6,12.6,0,0,0,.81-5C1534.88,1019.11,1531.9,959.69,1523.82,932.93Zm-102.4,37.94s-6.37,13.11-11.48,0a17.68,17.68,0,0,1-.74-2.46c-3.2-14.07,5.87-40.79,6.27-43.26s6-3.37,6-3.37l.39.1a15.41,15.41,0,0,1,7.69,4.77C1429.5,931.15,1421.42,970.87,1421.42,970.87Z" transform="translate(-1381.25 -885.24)"/><rect class="cls-3" x="56.91" y="11.24" width="40.38" height="1.87"/><path class="cls-4" d="M67.09,0h20a7,7,0,0,1,7,7v4.26a0,0,0,0,1,0,0h-34a0,0,0,0,1,0,0V7A7,7,0,0,1,67.09,0Z"/><path class="cls-5" d="M1434,940c-3,11-8,37-13,39-3.94,1.58-12,1-12-8a21.4,21.4,0,0,1,.2-2.59,17.68,17.68,0,0,0,.74,2.46c5.11,13.11,11.48,0,11.48,0s8.08-39.72,8.08-44.22a15.41,15.41,0,0,0-7.69-4.77c1.46-.13,6.19.12,9.19,2.12S1436.91,929.34,1434,940Z" transform="translate(-1381.25 -885.24)"/><path class="cls-5" d="M1525.07,1060.37c-2.2,2.15-6.14,4.69-9.46,5.32l-28.61,5.5a18,18,0,0,1-10.42-1.11l-5.49-2.36a17.84,17.84,0,0,0-15.24.58l-3.09,1.63a17.69,17.69,0,0,1-9.47,2c-7.81-.53-23-1.72-34.76-3.44.66,0,29.52,1.49,33.47-2.46s15-8,22-8,11,7,23,10c0,0,5,1,17-3S1521.73,1058.26,1525.07,1060.37Z" transform="translate(-1381.25 -885.24)"/><ellipse class="cls-4" cx="1466.61" cy="1004.94" rx="47.04" ry="21.04" transform="translate(-1533.4 -615.47) rotate(-9.99)"/><path class="cls-3" d="M1430.34,1006.35l-3,.54a6.47,6.47,0,0,1,.81-4.63,5,5,0,0,1,7.61-1.34,6.52,6.52,0,0,1,2.34,4.07,7,7,0,0,1-.19,3.16,14.87,14.87,0,0,1-1.33,3.15,19.69,19.69,0,0,1-1.36,2.2l4.18-.74.61,3.46-10.75,1.89.17-2.06a35.68,35.68,0,0,0,4.06-5.8,18.89,18.89,0,0,0,1.26-2.73,4.17,4.17,0,0,0,.31-2,2.4,2.4,0,1,0-4.69.82Z" transform="translate(-1381.25 -885.24)"/><path class="cls-3" d="M1441,1001.65a2.87,2.87,0,1,1-2,3.23A2.72,2.72,0,0,1,1441,1001.65Zm.31,1.72a1,1,0,0,0-.58.39,1.22,1.22,0,0,0,.26,1.57.9.9,0,0,0,.68.16,1,1,0,0,0,.73-1.22A1.07,1.07,0,0,0,1441.35,1003.37Zm6.75-3-5.23,15.32-1.82.32,5.24-15.32Zm-.22,8a2.5,2.5,0,0,1,2.09.59,3.23,3.23,0,0,1,1.2,2.07,2.81,2.81,0,1,1-3.29-2.66Zm-.74,3.37c.17,1,.69,1.38,1.54,1.23s1.19-.71,1-1.68-.68-1.39-1.53-1.24S1447,1010.75,1447.14,1011.73Z" transform="translate(-1381.25 -885.24)"/><path class="cls-3" d="M1463.26,1005.85l5.33-12.9,3.12,17.68-3,.53-1.26-7.16-3.13,7.65-5.57-6.11,1.26,7.16-3,.53-3.12-17.68Z" transform="translate(-1381.25 -885.24)"/><path class="cls-3" d="M1472.45,992.69l3-.54,3,17.28-3,.53Z" transform="translate(-1381.25 -885.24)"/><path class="cls-3" d="M1482.29,991l2.44,13.83,6.06-1.07.61,3.45-9.09,1.6-3-17.27Z" transform="translate(-1381.25 -885.24)"/><path class="cls-3" d="M1494.6,988.79l1.34,7.64,2.52-8.32,3.49-.62-2.91,9.56,6.68,7.59-3.69.64-5.67-6.46,1.28,7.24-3,.53-3-17.27Z" transform="translate(-1381.25 -885.24)"/></svg>