<svg id="whole_milk" data-name="whole milk" xmlns="http://www.w3.org/2000/svg" viewBox="0 0 154.21 186.7"><defs><style>.cls-1{fill:#e6e6e6;}.cls-2{fill:none;}.cls-3{fill:#f2f2f2;}.cls-4{fill:#d11d25;}.cls-5{fill:#ccc;}</style></defs><title>whole milk</title><path class="cls-1" d="M1315.36,677.36v3.9a17.09,17.09,0,0,0-2.38-.16h-31.63v-3.74Z" transform="translate(-1221.25 -664.24)"/><path class="cls-2" d="M1261.81,700.88l-.39-.1s-5.52.75-6,3.37-9.47,29.19-6.27,43.26a17.68,17.68,0,0,0,.74,2.46c5.11,13.11,11.48,0,11.48,0s8.08-39.72,8.08-44.22A15.41,15.41,0,0,0,1261.81,700.88Z" transform="translate(-1221.25 -664.24)"/><path class="cls-3" d="M1363.82,711.93a14.25,14.25,0,0,0-6.69-8.12l-35.4-20.41a17.34,17.34,0,0,0-6.37-2.14,17.09,17.09,0,0,0-2.38-.16h-33.26a17.89,17.89,0,0,0-6.92,1.39l-21.59,9.14a14.59,14.59,0,0,0-8.69,9.65l-20.89,82.86a12.7,12.7,0,0,0-.38,3.06v26.63a12.61,12.61,0,0,0,.2,2.21c.88,4.93,4.79,24.16,12.55,28.07,2.53,1.27,8,2.4,14.52,3.35h0c11.75,1.72,27,2.91,34.76,3.44a17.69,17.69,0,0,0,9.47-2l3.09-1.63a17.84,17.84,0,0,1,15.24-.58l5.49,2.36a18,18,0,0,0,10.42,1.11l28.61-5.5a16.48,16.48,0,0,0,8.46-4.32,13.89,13.89,0,0,0,3.31-5l7.26-19.2a12.6,12.6,0,0,0,.81-5C1374.88,798.11,1371.9,738.69,1363.82,711.93Zm-102.4,37.94s-6.37,13.11-11.48,0a17.68,17.68,0,0,1-.74-2.46c-3.2-14.07,5.87-40.79,6.27-43.26s6-3.37,6-3.37l.39.1a15.41,15.41,0,0,1,7.69,4.77C1269.5,710.15,1261.42,749.87,1261.42,749.87Z" transform="translate(-1221.25 -664.24)"/><rect class="cls-3" x="56.91" y="11.24" width="40.38" height="1.87"/><path class="cls-4" d="M67.09,0h20a7,7,0,0,1,7,7v4.26a0,0,0,0,1,0,0h-34a0,0,0,0,1,0,0V7A7,7,0,0,1,67.09,0Z"/><path class="cls-5" d="M1274,719c-3,11-8,37-13,39-3.94,1.58-12,1-12-8a21.4,21.4,0,0,1,.2-2.59,17.68,17.68,0,0,0,.74,2.46c5.11,13.11,11.48,0,11.48,0s8.08-39.72,8.08-44.22a15.41,15.41,0,0,0-7.69-4.77c1.46-.13,6.19.12,9.19,2.12S1276.91,708.34,1274,719Z" transform="translate(-1221.25 -664.24)"/><path class="cls-5" d="M1365.07,839.37c-2.2,2.15-6.14,4.69-9.46,5.32l-28.61,5.5a18,18,0,0,1-10.42-1.11l-5.49-2.36a17.84,17.84,0,0,0-15.24.58l-3.09,1.63a17.69,17.69,0,0,1-9.47,2c-7.81-.53-23-1.72-34.76-3.44.66,0,29.52,1.49,33.47-2.46s15-8,22-8,11,7,23,10c0,0,5,1,17-3S1361.73,837.26,1365.07,839.37Z" transform="translate(-1221.25 -664.24)"/><ellipse class="cls-4" cx="1306.61" cy="783.94" rx="47.04" ry="21.04" transform="translate(-1337.47 -425.59) rotate(-9.99)"/><path class="cls-3" d="M1289.64,787.25l5.33-12.9,3.11,17.68-3,.53-1.27-7.15-3.13,7.64-5.57-6.11,1.26,7.16-3,.53L1280.21,777Z" transform="translate(-1221.25 -664.24)"/><path class="cls-3" d="M1298.83,774.09l3-.53,3,17.27-3,.53Z" transform="translate(-1221.25 -664.24)"/><path class="cls-3" d="M1308.67,772.36l2.44,13.82,6.05-1.07.61,3.45-9.08,1.6-3-17.27Z" transform="translate(-1221.25 -664.24)"/><path class="cls-3" d="M1321,770.19l1.35,7.64,2.51-8.32,3.5-.62-2.91,9.56,6.67,7.59-3.68.65-5.67-6.47,1.28,7.24-3,.53-3-17.27Z" transform="translate(-1221.25 -664.24)"/></svg>