<svg xmlns="http://www.w3.org/2000/svg" xmlns:xlink="http://www.w3.org/1999/xlink" viewBox="0 0 1922.5 1083"><defs><style>.cls-1{fill:url(#linear-gradient);}.cls-2{fill:#bdccd4;}.cls-11,.cls-26,.cls-3,.cls-4,.cls-5,.cls-55,.cls-56{fill:none;}.cls-28,.cls-3,.cls-4,.cls-5{stroke:#f2f2f2;}.cls-11,.cls-12,.cls-13,.cls-15,.cls-16,.cls-26,.cls-28,.cls-3,.cls-4,.cls-5,.cls-55,.cls-56,.cls-8,.cls-9{stroke-miterlimit:10;}.cls-3{stroke-width:18px;}.cls-4{stroke-width:15px;}.cls-5{stroke-width:10px;}.cls-6{fill:url(#linear-gradient-2);}.cls-12,.cls-60,.cls-62,.cls-64,.cls-7{fill:#333;}.cls-8{fill:#806044;}.cls-8,.cls-9{stroke:#8c6239;}.cls-10,.cls-15,.cls-9{fill:#a67c52;}.cls-11,.cls-12{stroke:#4d4d4d;}.cls-11,.cls-56{stroke-width:8px;}.cls-13,.cls-15,.cls-16{stroke:#333;stroke-width:3px;}.cls-13{fill:url(#linear-gradient-3);}.cls-14{fill:#8c6945;}.cls-16{fill:url(#linear-gradient-4);}.cls-17{fill:url(#linear-gradient-5);}.cls-18{fill:#534741;}.cls-19{fill:#43454a;}.cls-20{fill:#37393d;}.cls-21{fill:#1a1a1a;}.cls-22{fill:#999;}.cls-23{fill:#b3b3b3;}.cls-24{fill:url(#linear-gradient-6);}.cls-25{fill:url(#linear-gradient-7);}.cls-26,.cls-55{stroke:#1a1a1a;}.cls-26{stroke-width:4px;}.cls-27{fill:url(#linear-gradient-8);}.cls-28,.cls-61{fill:#666;}.cls-28{stroke-width:12px;}.cls-29{fill:#fff;}.cls-30,.cls-35,.cls-44{font-size:3.87px;}.cls-30,.cls-35,.cls-44,.cls-60,.cls-62{font-family:MyriadWebPro, Myriad Web Pro;}.cls-31{letter-spacing:-0.03em;}.cls-32{letter-spacing:0em;}.cls-33{letter-spacing:0em;}.cls-34{fill:#8a6c44;}.cls-35{letter-spacing:-0.01em;}.cls-36{letter-spacing:0em;}.cls-37{letter-spacing:-0.01em;}.cls-38{fill:#96b9ff;}.cls-39{letter-spacing:-0.04em;}.cls-40{fill:#96fff8;}.cls-41{letter-spacing:-0.01em;}.cls-42{letter-spacing:-0.01em;}.cls-43{fill:#a9ff99;}.cls-44{letter-spacing:0.01em;}.cls-45{fill:#ad8856;}.cls-46{letter-spacing:-0.01em;}.cls-47{fill:#d4a669;}.cls-48{letter-spacing:-0.07em;}.cls-49{letter-spacing:0.01em;}.cls-50{fill:#a6e0ff;}.cls-51{fill:#ccc;}.cls-52{fill:#f2f2f2;}.cls-53{fill:url(#linear-gradient-9);}.cls-54{fill:url(#linear-gradient-10);}.cls-55{stroke-width:2px;}.cls-56{stroke:#fff;}.cls-57{fill:#ededed;}.cls-58{fill:#c7ab8c;}.cls-59{fill:#8c6239;}.cls-60,.cls-62{font-size:18px;}.cls-60{letter-spacing:0.01em;}.cls-62{letter-spacing:-0.02em;}.cls-63{letter-spacing:0.01em;}.cls-64{opacity:0.2;}.cls-65{fill:#2e2e2e;}</style><linearGradient id="linear-gradient" x1="960.5" y1="30" x2="960.5" y2="1058.38" gradientUnits="userSpaceOnUse"><stop offset="0" stop-color="#757d82"/><stop offset="1" stop-color="#515457"/></linearGradient><linearGradient id="linear-gradient-2" x1="236" y1="645.5" x2="236" y2="1073.99" gradientUnits="userSpaceOnUse"><stop offset="0" stop-color="#43494d"/><stop offset="1" stop-color="#2f3336"/></linearGradient><linearGradient id="linear-gradient-3" x1="445" y1="521.75" x2="1921" y2="521.75" gradientUnits="userSpaceOnUse"><stop offset="0" stop-color="#ba9068"/><stop offset="0.49" stop-color="#9e7d5e"/><stop offset="1" stop-color="#ad8863"/></linearGradient><linearGradient id="linear-gradient-4" x1="445" y1="394.75" x2="1921" y2="394.75" gradientUnits="userSpaceOnUse"><stop offset="0" stop-color="#9c754f"/><stop offset="0.49" stop-color="#967452"/><stop offset="1" stop-color="#9c7854"/></linearGradient><linearGradient id="linear-gradient-5" x1="1182.5" y1="854" x2="1573.5" y2="854" gradientUnits="userSpaceOnUse"><stop offset="0" stop-color="#cfcfcf"/><stop offset="0.51" stop-color="#474747"/><stop offset="1" stop-color="#666"/></linearGradient><linearGradient id="linear-gradient-6" x1="45.67" y1="544.74" x2="45.67" y2="554.78" gradientUnits="userSpaceOnUse"><stop offset="0" stop-color="#080808"/><stop offset="1" stop-color="#353535"/></linearGradient><linearGradient id="linear-gradient-7" x1="336.85" y1="544.74" x2="336.85" y2="554.78" xlink:href="#linear-gradient-6"/><linearGradient id="linear-gradient-8" x1="190.71" y1="372.35" x2="190.71" y2="464.65" gradientUnits="userSpaceOnUse"><stop offset="0" stop-color="#e6e6e6"/><stop offset="1" stop-color="#fff"/></linearGradient><linearGradient id="linear-gradient-9" x1="190.71" y1="427.3" x2="190.71" y2="469.89" gradientUnits="userSpaceOnUse"><stop offset="0" stop-color="#ededed"/><stop offset="0.51" stop-color="#fff"/><stop offset="1" stop-color="#e0e0e0"/></linearGradient><linearGradient id="linear-gradient-10" x1="182.69" y1="518.19" x2="202.26" y2="518.19" gradientUnits="userSpaceOnUse"><stop offset="0" stop-color="#b2b2b2"/><stop offset="0.51" stop-color="#cbcbcb"/><stop offset="1" stop-color="#f4f4f4"/></linearGradient></defs><title>bg</title><g id="Layer_24" data-name="Layer 24"><rect class="cls-1" x="1" width="1919" height="1080"/></g><g id="Layer_25" data-name="Layer 25"><g id="Layer_26" data-name="Layer 26"><path class="cls-2" d="M212.3,77C57.42,77,31.6,277,31.6,277V820H393V277S367.19,77,212.3,77Z" transform="translate(1 1)"/></g><path class="cls-3" d="M212.3,77C57.42,77,31.6,277,31.6,277V820H393V277S367.19,77,212.3,77Z" transform="translate(1 1)"/><line class="cls-4" x1="213" y1="78" x2="213" y2="821"/><line class="cls-5" x1="303" y1="114" x2="303" y2="821"/><line class="cls-5" x1="123" y1="114" x2="123" y2="821"/><line class="cls-5" x1="33" y1="278" x2="394" y2="278"/><line class="cls-5" x1="33" y1="459" x2="394" y2="459"/><line class="cls-5" x1="33" y1="640" x2="394" y2="640"/></g><g id="Layer_27" data-name="Layer 27"><path class="cls-2" d="M712.3,77C557.42,77,531.6,277,531.6,277V820H893V277S867.19,77,712.3,77Z" transform="translate(1 1)"/><path class="cls-3" d="M712.3,77C557.42,77,531.6,277,531.6,277V820H893V277S867.19,77,712.3,77Z" transform="translate(1 1)"/><line class="cls-4" x1="713" y1="78" x2="713" y2="821"/><line class="cls-5" x1="803" y1="114" x2="803" y2="821"/><line class="cls-5" x1="623" y1="114" x2="623" y2="821"/><line class="cls-5" x1="533" y1="278" x2="894" y2="278"/><line class="cls-5" x1="533" y1="459" x2="894" y2="459"/><line class="cls-5" x1="533" y1="640" x2="894" y2="640"/><path class="cls-2" d="M1212.3,77c-154.88,0-180.7,200-180.7,200V820H1393V277S1367.19,77,1212.3,77Z" transform="translate(1 1)"/><path class="cls-3" d="M1212.3,77c-154.88,0-180.7,200-180.7,200V820H1393V277S1367.19,77,1212.3,77Z" transform="translate(1 1)"/><line class="cls-4" x1="1213" y1="78" x2="1213" y2="821"/><line class="cls-5" x1="1303" y1="114" x2="1303" y2="821"/><line class="cls-5" x1="1123" y1="114" x2="1123" y2="821"/><line class="cls-5" x1="1033" y1="278" x2="1394" y2="278"/><line class="cls-5" x1="1033" y1="459" x2="1394" y2="459"/><line class="cls-5" x1="1033" y1="640" x2="1394" y2="640"/><path class="cls-2" d="M1712.3,77c-154.88,0-180.7,200-180.7,200V820H1893V277S1867.19,77,1712.3,77Z" transform="translate(1 1)"/><path class="cls-3" d="M1712.3,77c-154.88,0-180.7,200-180.7,200V820H1893V277S1867.19,77,1712.3,77Z" transform="translate(1 1)"/><line class="cls-4" x1="1713" y1="78" x2="1713" y2="821"/><line class="cls-5" x1="1803" y1="114" x2="1803" y2="821"/><line class="cls-5" x1="1623" y1="114" x2="1623" y2="821"/><line class="cls-5" x1="1533" y1="278" x2="1894" y2="278"/><line class="cls-5" x1="1533" y1="459" x2="1894" y2="459"/><line class="cls-5" x1="1533" y1="640" x2="1894" y2="640"/></g><g id="background"><rect class="cls-6" y="633" width="472" height="450"/><rect class="cls-7" x="1183.5" y="629.5" width="391" height="451"/><rect class="cls-8" x="471.5" y="629.5" width="688" height="451"/><polyline class="cls-8" points="1565.5 629.5 1920.5 629.5 1920.5 1080.5 1565.5 1080.5"/><rect class="cls-9" x="472" y="843" width="688.5" height="24"/><rect class="cls-10" x="472" y="730" width="688.5" height="24"/><rect class="cls-10" x="1159.5" y="629.5" width="24" height="451"/><line class="cls-11" x1="1205" y1="855" x2="1553" y2="855"/><rect class="cls-7" x="1" y="554.37" width="1920" height="45.75"/><line class="cls-12" x1="1921" y1="600.13" x2="1" y2="600.13"/><rect class="cls-13" x="445" y="489.5" width="1476" height="64.5"/><path class="cls-14" d="M443.51,534.25q46.11,1.85,92.24,3c30.75.78,61.51,1.36,92.27,1.58s61.52.13,92.24-1c15.35-.62,30.73-1.38,45.92-3.37,1.9-.26,3.78-.56,5.67-.88l5.73-.89c1.91-.29,3.83-.47,5.75-.71s3.83-.43,5.75-.6c7.69-.75,15.38-1.14,23.08-1.51,15.39-.63,30.79-.8,46.18-.78s30.78.25,46.17.58c30.77.65,61.52,1.67,92.27,2.56,15.37.44,30.74.86,46.11,1.13s30.74.43,46.08.1c1.91,0,3.83-.08,5.74-.16s3.83-.11,5.74-.23l11.51-.62c7.7-.49,15.41-.65,23.11-.9q23.12-.43,46.2-.28c30.78.18,61.55.82,92.3,1.25s61.51.85,92.22.36c15.37-.19,30.65-.89,46.09-1.38s30.82-.61,46.22-.56c7.7,0,15.39.07,23.09.12l23.08.35,46.15.86,46.11.72c7.69.09,15.37.17,23.06.19s15.37,0,23.05,0,15.37-.14,23-.21,15.36-.32,23-.47l23.08-.54,23.08-.32q46.17-.43,92.33.21,23.07.35,46.15.93c15.38.39,30.75.84,46.13,1.47l0,.5q-46.14-.64-92.28-.53T1735,535.28l-23,.58-23.05.72c-7.7.21-15.39.49-23.09.65s-15.39.35-23.09.4-15.4.18-23.09.18-15.4,0-23.09,0l-23.09-.16-23.08-.33c-30.77-.49-61.52-1.08-92.25-1.23-15.36-.1-30.72.08-46.07.41l-23,.7c-7.71.27-15.41.35-23.12.45-61.62.53-123.12-2-184.61-2.56q-23.06-.27-46.09.07c-7.67.22-15.35.35-23,.8l-11.54.58c-1.93.1-3.86.13-5.79.2s-3.86.12-5.78.14c-15.43.26-30.82,0-46.21-.3s-30.77-.83-46.15-1.34c-30.75-1-61.49-2.17-92.23-3s-61.5-1.33-92.21-.29c-7.67.33-15.34.67-23,1.37-1.91.16-3.82.32-5.72.56s-3.81.4-5.7.68l-5.67.84c-1.91.32-3.83.62-5.74.86-15.33,2-30.73,2.64-46.11,3.2-30.77,1-61.55.94-92.31.61s-61.53-1.06-92.29-2-61.49-2-92.23-3.38Z" transform="translate(1 1)"/><path class="cls-14" d="M443.5,522.25l184.63-.93q46.17-.27,92.3-1,23.09-.35,46.17-.47t46.16-.2c15.39-.05,30.78,0,46.16.12l46.16.44,92.32,1c15.39.14,30.78.27,46.17.5l46.15.76q11.54.16,23.08.22l23.07.12q23.09.11,46.16,0t46.14-.32c15.38-.14,30.76-.3,46.14-.6s30.74-.7,46.1-1.16c7.69-.28,15.34-.6,23.07-.82,3.86-.14,7.71-.22,11.56-.29l11.55-.22c61.57-.9,123.11-1.11,184.66-1.33l92.31-.28,46.14-.23c15.39-.08,30.73-.37,46.15-.54s30.79-.18,46.18-.1,30.79.33,46.18.6,30.77.6,46.16,1.08,30.76,1,46.14,1.62l0,.5q-46.15-.42-92.31-.34-23.07,0-46.14.3t-46.12.65c-30.75.82-61.57,1.27-92.33,1.52l-92.33.57-92.31.29c-30.77.09-61.54.18-92.29.51l-11.53.17c-3.84.05-7.68.12-11.51.24l-23.07.69q-23.1.6-46.19.76t-46.18.13q-23.09-.11-46.17-.39-46.17-.55-92.32-1.56l-46.15-1c-15.37-.39-30.76-.39-46.14-.47-61.55-.1-123.09,1.06-184.63,1.22l-92.3.25c-15.37,0-30.77.27-46.17.25l-46.16-.08q-92.32-.33-184.64-1.73Z" transform="translate(1 1)"/><path class="cls-14" d="M443.5,504.5c123-1.69,246-2.44,369-.91,61.49.23,123-1.42,184.48-1.77q46.15-.29,92.3.49l46.11.84q23.05.32,46.1.36c15.37,0,30.74-.05,46.1-.18s30.74-.29,46.12-.49c30.74-.4,61.51-.85,92.28-.63,15.39.1,30.79.48,46.15.8s30.73.47,46.1.56c30.73.19,61.48,0,92.23,0l92.26-.25,92.25.23,184.51,1-184.51,1c-30.75.12-61.5.15-92.25.36l-92.24.87q-46.12.5-92.27.37-23.07-.07-46.15-.46c-15.39-.29-30.73-.63-46.1-.7-30.72-.15-61.46.36-92.21.82-15.37.23-30.75.45-46.13.58s-30.77.16-46.15.09-30.77-.21-46.15-.46l-46.12-.93q-46.1-.91-92.21-.69c-30.74.11-61.48.59-92.24.81s-61.51.37-92.27.09C689.5,504.08,566.51,504.05,443.5,504.5Z" transform="translate(1 1)"/><rect class="cls-15" x="445" y="425.5" width="1476" height="64.5"/><path class="cls-14" d="M443.51,470.25q46.11,1.85,92.24,3c30.75.78,61.51,1.36,92.27,1.58s61.52.13,92.24-1c15.35-.62,30.73-1.38,45.92-3.37,1.9-.26,3.78-.56,5.67-.88l5.73-.89c1.91-.29,3.83-.47,5.75-.71s3.83-.43,5.75-.6c7.69-.75,15.38-1.14,23.08-1.51,15.39-.63,30.79-.8,46.18-.78s30.78.25,46.17.58c30.77.65,61.52,1.67,92.27,2.56,15.37.44,30.74.86,46.11,1.13s30.74.43,46.08.1c1.91,0,3.83-.08,5.74-.16s3.83-.11,5.74-.23l11.51-.62c7.7-.49,15.41-.65,23.11-.9q23.12-.44,46.2-.28c30.78.18,61.55.82,92.3,1.25s61.51.85,92.22.36c15.37-.19,30.65-.89,46.09-1.38s30.82-.61,46.22-.56c7.7,0,15.39.07,23.09.12l23.08.35,46.15.86,46.11.72c7.69.09,15.37.17,23.06.19s15.37,0,23.05,0,15.37-.14,23-.21,15.36-.32,23-.47l23.08-.54,23.08-.32q46.17-.43,92.33.21,23.07.34,46.15.93c15.38.39,30.75.84,46.13,1.47l0,.5q-46.14-.64-92.28-.53T1735,471.28l-23,.58-23.05.72c-7.7.21-15.39.49-23.09.65s-15.39.35-23.09.4-15.4.18-23.09.18-15.4,0-23.09,0l-23.09-.16-23.08-.33c-30.77-.49-61.52-1.08-92.25-1.23-15.36-.1-30.72.08-46.07.41l-23,.7c-7.71.27-15.41.35-23.12.45-61.62.53-123.12-2-184.61-2.56q-23.06-.27-46.09.07c-7.67.22-15.35.35-23,.8l-11.54.58c-1.93.1-3.86.13-5.79.2s-3.86.12-5.78.14c-15.43.26-30.82,0-46.21-.3s-30.77-.83-46.15-1.34c-30.75-1-61.49-2.17-92.23-3s-61.5-1.33-92.21-.29c-7.67.33-15.34.67-23,1.37-1.91.16-3.82.32-5.72.56s-3.81.4-5.7.68l-5.67.84c-1.91.32-3.83.62-5.74.86-15.33,1.95-30.73,2.64-46.11,3.2-30.77,1-61.55.94-92.31.61s-61.53-1.06-92.29-2-61.49-2-92.23-3.38Z" transform="translate(1 1)"/><path class="cls-14" d="M443.5,458.25l184.63-.93q46.17-.27,92.3-1,23.09-.34,46.17-.47t46.16-.2c15.39-.05,30.78,0,46.16.12l46.16.44,92.32,1c15.39.14,30.78.27,46.17.5l46.15.76q11.54.16,23.08.22l23.07.12q23.09.1,46.16,0t46.14-.32c15.38-.14,30.76-.3,46.14-.6s30.74-.7,46.1-1.16c7.69-.28,15.34-.6,23.07-.82,3.86-.14,7.71-.22,11.56-.29l11.55-.22c61.57-.9,123.11-1.11,184.66-1.33l92.31-.28,46.14-.23c15.39-.08,30.73-.37,46.15-.54s30.79-.18,46.18-.1,30.79.33,46.18.6,30.77.6,46.16,1.08,30.76.95,46.14,1.62l0,.5q-46.15-.42-92.31-.34-23.07,0-46.14.3t-46.12.65c-30.75.82-61.57,1.27-92.33,1.52l-92.33.57-92.31.29c-30.77.09-61.54.18-92.29.51l-11.53.17c-3.84.05-7.68.12-11.51.24l-23.07.69q-23.1.6-46.19.76t-46.18.13q-23.09-.11-46.17-.39-46.17-.56-92.32-1.56l-46.15-1c-15.37-.39-30.76-.39-46.14-.47-61.55-.1-123.09,1.06-184.63,1.22l-92.3.25c-15.37,0-30.77.27-46.17.25l-46.16-.08q-92.32-.33-184.64-1.73Z" transform="translate(1 1)"/><path class="cls-14" d="M443.5,440.5c123-1.69,246-2.44,369-.91,61.49.23,123-1.42,184.48-1.77q46.15-.29,92.3.49l46.11.84q23.05.32,46.1.36c15.37,0,30.74-.05,46.1-.18s30.74-.29,46.12-.49c30.74-.4,61.51-.85,92.28-.63,15.39.1,30.79.48,46.15.8s30.73.47,46.1.56c30.73.19,61.48,0,92.23,0l92.26-.25,92.25.23,184.51,1-184.51,1c-30.75.12-61.5.15-92.25.36l-92.24.87q-46.12.5-92.27.37-23.07-.07-46.15-.46c-15.39-.29-30.73-.63-46.1-.7-30.72-.15-61.46.36-92.21.82-15.37.23-30.75.45-46.13.58s-30.77.16-46.15.09-30.77-.21-46.15-.46l-46.12-.93q-46.1-.91-92.21-.69c-30.74.11-61.48.59-92.24.81s-61.51.37-92.27.09C689.5,440.08,566.51,440.05,443.5,440.5Z" transform="translate(1 1)"/><rect class="cls-16" x="445" y="362.5" width="1476" height="64.5"/><path class="cls-14" d="M443.51,407.25q46.11,1.85,92.24,3c30.75.78,61.51,1.36,92.27,1.58s61.52.13,92.24-1c15.35-.62,30.73-1.38,45.92-3.37,1.9-.26,3.78-.56,5.67-.88l5.73-.89c1.91-.29,3.83-.47,5.75-.71s3.83-.43,5.75-.6c7.69-.75,15.38-1.14,23.08-1.51,15.39-.63,30.79-.8,46.18-.78s30.78.25,46.17.58c30.77.65,61.52,1.67,92.27,2.56,15.37.44,30.74.86,46.11,1.13s30.74.43,46.08.1c1.91,0,3.83-.08,5.74-.16s3.83-.11,5.74-.23l11.51-.62c7.7-.49,15.41-.65,23.11-.9q23.12-.44,46.2-.28c30.78.18,61.55.82,92.3,1.25s61.51.85,92.22.36c15.37-.19,30.65-.89,46.09-1.38s30.82-.61,46.22-.56c7.7,0,15.39.07,23.09.12l23.08.35,46.15.86,46.11.72c7.69.09,15.37.17,23.06.19s15.37,0,23.05,0,15.37-.14,23-.21,15.36-.32,23-.47l23.08-.54,23.08-.32q46.17-.43,92.33.21,23.07.34,46.15.93c15.38.39,30.75.84,46.13,1.47l0,.5q-46.14-.64-92.28-.53T1735,408.28l-23,.58-23.05.72c-7.7.21-15.39.49-23.09.65s-15.39.35-23.09.4-15.4.18-23.09.18-15.4,0-23.09,0l-23.09-.16-23.08-.33c-30.77-.49-61.52-1.08-92.25-1.23-15.36-.1-30.72.08-46.07.41l-23,.7c-7.71.27-15.41.35-23.12.45-61.62.53-123.12-2-184.61-2.56q-23.06-.27-46.09.07c-7.67.22-15.35.35-23,.8l-11.54.58c-1.93.1-3.86.13-5.79.2s-3.86.12-5.78.14c-15.43.26-30.82,0-46.21-.3s-30.77-.83-46.15-1.34c-30.75-1-61.49-2.17-92.23-3s-61.5-1.33-92.21-.29c-7.67.33-15.34.67-23,1.37-1.91.16-3.82.32-5.72.56s-3.81.4-5.7.68l-5.67.84c-1.91.32-3.83.62-5.74.86-15.33,1.95-30.73,2.64-46.11,3.2-30.77,1-61.55.94-92.31.61s-61.53-1.06-92.29-2-61.49-2-92.23-3.38Z" transform="translate(1 1)"/><path class="cls-14" d="M443.5,395.25l184.63-.93q46.17-.27,92.3-1,23.09-.34,46.17-.47t46.16-.2c15.39-.05,30.78,0,46.16.12l46.16.44,92.32,1c15.39.14,30.78.27,46.17.5l46.15.76q11.54.16,23.08.22l23.07.12q23.09.1,46.16,0t46.14-.32c15.38-.14,30.76-.3,46.14-.6s30.74-.7,46.1-1.16c7.69-.28,15.34-.6,23.07-.82,3.86-.14,7.71-.22,11.56-.29l11.55-.22c61.57-.9,123.11-1.11,184.66-1.33l92.31-.28,46.14-.23c15.39-.08,30.73-.37,46.15-.54s30.79-.18,46.18-.1,30.79.33,46.18.6,30.77.6,46.16,1.08,30.76.95,46.14,1.62l0,.5q-46.15-.42-92.31-.34-23.07,0-46.14.3t-46.12.65c-30.75.82-61.57,1.27-92.33,1.52l-92.33.57-92.31.29c-30.77.09-61.54.18-92.29.51l-11.53.17c-3.84.05-7.68.12-11.51.24l-23.07.69q-23.1.6-46.19.76t-46.18.13q-23.09-.11-46.17-.39-46.17-.56-92.32-1.56l-46.15-1c-15.37-.39-30.76-.39-46.14-.47-61.55-.1-123.09,1.06-184.63,1.22l-92.3.25c-15.37,0-30.77.27-46.17.25l-46.16-.08q-92.32-.33-184.64-1.73Z" transform="translate(1 1)"/><path class="cls-14" d="M443.5,377.5c123-1.69,246-2.44,369-.91,61.49.23,123-1.42,184.48-1.77q46.15-.29,92.3.49l46.11.84q23.05.32,46.1.36c15.37,0,30.74-.05,46.1-.18s30.74-.29,46.12-.49c30.74-.4,61.51-.85,92.28-.63,15.39.1,30.79.48,46.15.8s30.73.47,46.1.56c30.73.19,61.48,0,92.23,0l92.26-.25,92.25.23,184.51,1-184.51,1c-30.75.12-61.5.15-92.25.36l-92.24.87q-46.12.5-92.27.37-23.07-.07-46.15-.46c-15.39-.29-30.73-.63-46.1-.7-30.72-.15-61.46.36-92.21.82-15.37.23-30.75.45-46.13.58s-30.77.16-46.15.09-30.77-.21-46.15-.46l-46.12-.93q-46.1-.91-92.21-.69c-30.74.11-61.48.59-92.24.81s-61.51.37-92.27.09C689.5,377.08,566.51,377.05,443.5,377.5Z" transform="translate(1 1)"/><rect class="cls-15" x="445" y="298.5" width="1476" height="64.5"/><path class="cls-14" d="M443.51,343.25q46.11,1.85,92.24,3c30.75.78,61.51,1.36,92.27,1.58s61.52.13,92.24-1c15.35-.62,30.73-1.38,45.92-3.37,1.9-.26,3.78-.56,5.67-.88l5.73-.89c1.91-.29,3.83-.47,5.75-.71s3.83-.43,5.75-.6c7.69-.75,15.38-1.14,23.08-1.51,15.39-.63,30.79-.8,46.18-.78s30.78.25,46.17.58c30.77.65,61.52,1.67,92.27,2.56,15.37.44,30.74.86,46.11,1.13s30.74.43,46.08.1c1.91,0,3.83-.08,5.74-.16s3.83-.11,5.74-.23l11.51-.62c7.7-.49,15.41-.65,23.11-.9q23.12-.44,46.2-.28c30.78.18,61.55.82,92.3,1.25s61.51.85,92.22.36c15.37-.19,30.65-.89,46.09-1.38s30.82-.61,46.22-.56c7.7,0,15.39.07,23.09.12l23.08.35,46.15.86,46.11.72c7.69.09,15.37.17,23.06.19s15.37,0,23.05,0,15.37-.14,23-.21,15.36-.32,23-.47l23.08-.54,23.08-.32q46.17-.43,92.33.21,23.07.34,46.15.93c15.38.39,30.75.84,46.13,1.47l0,.5q-46.14-.64-92.28-.53T1735,344.28l-23,.58-23.05.72c-7.7.21-15.39.49-23.09.65s-15.39.35-23.09.4-15.4.18-23.09.18-15.4,0-23.09,0l-23.09-.16-23.08-.33c-30.77-.49-61.52-1.08-92.25-1.23-15.36-.1-30.72.08-46.07.41l-23,.7c-7.71.27-15.41.35-23.12.45-61.62.53-123.12-2-184.61-2.56q-23.06-.27-46.09.07c-7.67.22-15.35.35-23,.8l-11.54.58c-1.93.1-3.86.13-5.79.2s-3.86.12-5.78.14c-15.43.26-30.82,0-46.21-.3s-30.77-.83-46.15-1.34c-30.75-1-61.49-2.17-92.23-3s-61.5-1.33-92.21-.29c-7.67.33-15.34.67-23,1.37-1.91.16-3.82.32-5.72.56s-3.81.4-5.7.68l-5.67.84c-1.91.32-3.83.62-5.74.86-15.33,1.95-30.73,2.64-46.11,3.2-30.77,1-61.55.94-92.31.61s-61.53-1.06-92.29-2-61.49-2-92.23-3.38Z" transform="translate(1 1)"/><path class="cls-14" d="M443.5,331.25l184.63-.93q46.17-.27,92.3-1,23.09-.34,46.17-.47t46.16-.2c15.39-.05,30.78,0,46.16.12l46.16.44,92.32,1c15.39.14,30.78.27,46.17.5l46.15.76q11.54.16,23.08.22l23.07.12q23.09.1,46.16,0t46.14-.32c15.38-.14,30.76-.3,46.14-.6s30.74-.7,46.1-1.16c7.69-.28,15.34-.6,23.07-.82,3.86-.14,7.71-.22,11.56-.29l11.55-.22c61.57-.9,123.11-1.11,184.66-1.33l92.31-.28,46.14-.23c15.39-.08,30.73-.37,46.15-.54s30.79-.18,46.18-.1,30.79.33,46.18.6,30.77.6,46.16,1.08,30.76.95,46.14,1.62l0,.5q-46.15-.42-92.31-.34-23.07,0-46.14.3t-46.12.65c-30.75.82-61.57,1.27-92.33,1.52l-92.33.57-92.31.29c-30.77.09-61.54.18-92.29.51l-11.53.17c-3.84.05-7.68.12-11.51.24l-23.07.69q-23.1.6-46.19.76t-46.18.13q-23.09-.11-46.17-.39-46.17-.56-92.32-1.56l-46.15-1c-15.37-.39-30.76-.39-46.14-.47-61.55-.1-123.09,1.06-184.63,1.22l-92.3.25c-15.37,0-30.77.27-46.17.25l-46.16-.08q-92.32-.33-184.64-1.73Z" transform="translate(1 1)"/><path class="cls-14" d="M443.5,313.5c123-1.69,246-2.44,369-.91,61.49.23,123-1.42,184.48-1.77q46.15-.29,92.3.49l46.11.84q23.05.32,46.1.36c15.37,0,30.74-.05,46.1-.18s30.74-.29,46.12-.49c30.74-.4,61.51-.85,92.28-.63,15.39.1,30.79.48,46.15.8s30.73.47,46.1.56c30.73.19,61.48,0,92.23,0l92.26-.25,92.25.23,184.51,1-184.51,1c-30.75.12-61.5.15-92.25.36l-92.24.87q-46.12.5-92.27.37-23.07-.07-46.15-.46c-15.39-.29-30.73-.63-46.1-.7-30.72-.15-61.46.36-92.21.82-15.37.23-30.75.45-46.13.58s-30.77.16-46.15.09-30.77-.21-46.15-.46l-46.12-.93q-46.1-.91-92.21-.69c-30.74.11-61.48.59-92.24.81s-61.51.37-92.27.09C689.5,313.08,566.51,313.05,443.5,313.5Z" transform="translate(1 1)"/><line class="cls-9" x1="457.5" y1="1080.5" x2="447.5" y2="1080.5"/><rect class="cls-10" x="447.5" y="629.5" width="25" height="451"/><path class="cls-17" d="M1551.5,650.5v407h-347v-407h347m22-22h-391v451h391v-451Z" transform="translate(1 1)"/><rect class="cls-10" x="4" y="632" width="444" height="107.5"/><path class="cls-7" d="M444.5,633.5V736H5.5V633.5h439m5-5H.5V741h449V628.5Z" transform="translate(1 1)"/><rect class="cls-10" x="1.5" y="600.5" width="1919" height="29.45"/><path class="cls-18" d="M256.92,650H193.08a3.58,3.58,0,0,1-3.12-1.8l-6.83-9.79a3.6,3.6,0,0,1,3.12-5.41h77.5a3.6,3.6,0,0,1,3.12,5.41L260,648.2A3.58,3.58,0,0,1,256.92,650Z" transform="translate(1 1)"/><rect class="cls-10" x="4" y="739" width="444" height="107.5"/><path class="cls-7" d="M444.5,740.5V843H5.5V740.5h439m5-5H.5V848h449V735.5Z" transform="translate(1 1)"/><path class="cls-18" d="M256.92,757H193.08a3.58,3.58,0,0,1-3.12-1.8l-6.83-9.79a3.6,3.6,0,0,1,3.12-5.41h77.5a3.6,3.6,0,0,1,3.12,5.41L260,755.2A3.58,3.58,0,0,1,256.92,757Z" transform="translate(1 1)"/><rect class="cls-10" x="4" y="846" width="444" height="107.5"/><path class="cls-7" d="M444.5,847.5V950H5.5V847.5h439m5-5H.5V955h449V842.5Z" transform="translate(1 1)"/><path class="cls-18" d="M256.92,864H193.08a3.58,3.58,0,0,1-3.12-1.8l-6.83-9.79a3.6,3.6,0,0,1,3.12-5.41h77.5a3.6,3.6,0,0,1,3.12,5.41L260,862.2A3.58,3.58,0,0,1,256.92,864Z" transform="translate(1 1)"/><rect class="cls-10" x="4" y="953" width="444" height="107.5"/><path class="cls-7" d="M444.5,954.5V1057H5.5V954.5h439m5-5H.5V1062h449V949.5Z" transform="translate(1 1)"/><path class="cls-18" d="M256.92,971H193.08a3.58,3.58,0,0,1-3.12-1.8l-6.83-9.79a3.6,3.6,0,0,1,3.12-5.41h77.5a3.6,3.6,0,0,1,3.12,5.41L260,969.2A3.58,3.58,0,0,1,256.92,971Z" transform="translate(1 1)"/></g><g id="trash"><polygon class="cls-19" points="1870.47 1080.5 1627.53 1080.5 1600.44 672.5 1897.56 672.5 1870.47 1080.5"/><rect class="cls-20" x="1688" y="735" width="122" height="32"/><path class="cls-21" d="M1599,672h298s8,19,6,28c0,0-28,18-45,0s-47,11-59,8-39-23-64-13-38,16-51,13-21-14-36-14-43,17-51,7S1599,672,1599,672Z" transform="translate(1 1)"/><path class="cls-22" d="M1804,677.8c5.08-.7,10.14-1,15.21-1.16,2.53-.08,5.06-.15,7.59-.14s5.07,0,7.6.21c5.06.32,10.12,1,15.19,1.21s10.12.05,15.19-.26c2.53-.14,5.06-.33,7.59-.42s5.06-.15,7.59-.19l3.8-.06h1.54l.64,0a11,11,0,0,1,2.31.55,12.88,12.88,0,0,1,6.65,5.84,19.93,19.93,0,0,1,1.67,3.88,19.72,19.72,0,0,1,.88,4.16,9,9,0,0,1-.9,4.66,9.44,9.44,0,0,1-3.1,3.37,14.61,14.61,0,0,1-3.79,1.77,21.82,21.82,0,0,1-3.9.86,30.56,30.56,0,0,1-7.76.09v-.4a50.13,50.13,0,0,0,7.31-1.69,18.61,18.61,0,0,0,6.24-3.15,5.36,5.36,0,0,0,2-5.13,20.36,20.36,0,0,0-.92-3.21,18.37,18.37,0,0,0-1.44-3,9.68,9.68,0,0,0-4.46-4.11,6,6,0,0,0-1.36-.4l-.3-.05h-.36l-1,0-3.8-.15c-2.53-.11-5.07-.21-7.6-.38s-5.07-.41-7.61-.61a151.29,151.29,0,0,0-15.19-.63c-5.07.06-10.14.64-15.21.83-2.53.1-5.07.1-7.6,0s-5.07-.18-7.6-.32c-5.06-.32-10.13-.71-15.18-1.54Z" transform="translate(1 1)"/><path class="cls-23" d="M1599.24,690.39a22,22,0,0,1-.46-5.32,18,18,0,0,1,.26-2.72,13,13,0,0,1,.75-2.77,7,7,0,0,1,1.86-2.72,2,2,0,0,1,.38-.31l.57-.29.3-.12a1.08,1.08,0,0,1,.2-.06l.39-.1a13.11,13.11,0,0,1,1.44-.29,30,30,0,0,1,5.32-.31c3.5.09,7,.67,10.43.75a80.14,80.14,0,0,0,10.38-.47c1.73-.17,3.46-.37,5.19-.48s3.46-.18,5.19-.23c3.46-.1,6.92-.21,10.38-.08a124.21,124.21,0,0,1,20.69,2.43l0,.4a140.92,140.92,0,0,1-20.75,1.44c-3.45,0-6.9-.22-10.35-.41-1.72-.1-3.44-.19-5.17-.34s-3.45-.37-5.17-.54a65.19,65.19,0,0,0-10.35-.43c-3.45.16-6.89.86-10.29,1.29-1.69.22-3.39.35-5,.51-.38,0-.82.09-1.11.16l-.25,0-.11,0h0l0,0s-.08.07-.12.09a4.26,4.26,0,0,0-1.18,1.42,20.6,20.6,0,0,0-1.73,4.46c-.44,1.62-.84,3.3-1.24,5Z" transform="translate(1 1)"/></g><g id="register"><polygon class="cls-24" points="51.76 554.73 39.59 554.73 37.92 544.21 53.42 544.21 51.76 554.73"/><polygon class="cls-25" points="342.94 554.73 330.76 554.73 329.1 544.21 344.6 544.21 342.94 554.73"/><rect class="cls-7" x="25.43" y="467.26" width="331.66" height="77.88" rx="12.54" ry="12.54"/><rect class="cls-26" x="37.96" y="477.38" width="306.6" height="57.64" rx="12.54" ry="12.54"/><rect class="cls-27" x="131.48" y="374.97" width="118.46" height="83.99" rx="11.06" ry="11.06"/><rect class="cls-28" x="98.26" y="263" width="180.46" height="120.68" rx="18.92" ry="18.92"/><rect class="cls-29" x="113.33" y="277.82" width="21.9" height="14.65" rx="5.09" ry="5.09"/><text class="cls-30" transform="translate(117.2 286.25)"><tspan class="cls-31">F</tspan><tspan x="1.84" y="0">or He</tspan><tspan class="cls-32" x="10.85" y="0">r</tspan><tspan class="cls-33" x="12.14" y="0">e</tspan></text><rect class="cls-34" x="113.33" y="299.96" width="21.9" height="14.65" rx="5.09" ry="5.09"/><text class="cls-35" transform="translate(118.87 308.39)">C<tspan class="cls-36" x="2.29" y="0">of</tspan><tspan class="cls-37" x="5.68" y="0">f</tspan><tspan class="cls-33" x="6.8" y="0">ee</tspan></text><rect class="cls-38" x="113.33" y="322.1" width="21.9" height="14.65" rx="5.09" ry="5.09"/><text class="cls-30" transform="translate(118.78 330.53)"><tspan class="cls-39">V</tspan><tspan x="2.1" y="0">anilla</tspan></text><rect class="cls-40" x="141.01" y="322.1" width="21.9" height="14.65" rx="5.09" ry="5.09"/><text class="cls-30" transform="translate(145.08 330.53)"><tspan class="cls-41">C</tspan><tspan x="2.32" y="0">a</tspan><tspan class="cls-42" x="4.25" y="0">r</tspan><tspan x="5.54" y="0">amel</tspan></text><rect class="cls-43" x="168.68" y="322.1" width="21.9" height="14.65" rx="5.09" ry="5.09"/><text class="cls-44" transform="translate(173.93 330.53)">M<tspan class="cls-36" x="3.24" y="0">ocha</tspan></text><rect class="cls-45" x="141.01" y="299.96" width="21.9" height="14.65" rx="5.09" ry="5.09"/><text class="cls-30" transform="translate(147.72 308.39)">Lat<tspan class="cls-46" x="5.16" y="0">t</tspan><tspan x="6.46" y="0">e</tspan></text><rect class="cls-47" x="168.68" y="299.96" width="21.9" height="14.65" rx="5.09" ry="5.09"/><text class="cls-30" transform="translate(169.63 308.39)"><tspan class="cls-41">C</tspan><tspan x="2.32" y="0">appuccino</tspan></text><rect class="cls-29" x="141.01" y="277.82" width="21.9" height="14.65" rx="5.09" ry="5.09"/><text class="cls-30" transform="translate(146.96 286.25)"><tspan class="cls-48">T</tspan><tspan class="cls-36" x="1.75" y="0">o-</tspan><tspan class="cls-49" x="5.16" y="0">G</tspan><tspan x="7.79" y="0">o</tspan></text><rect class="cls-50" x="168.68" y="277.82" width="21.9" height="14.65" rx="5.09" ry="5.09"/><text class="cls-30" transform="translate(176.13 286.25)">I<tspan class="cls-46" x="0.96" y="0">c</tspan><tspan class="cls-33" x="2.74" y="0">ed</tspan></text><rect class="cls-51" x="202.89" y="277.82" width="60.89" height="91.04" rx="6.38" ry="6.38"/><rect class="cls-52" x="204.61" y="279.49" width="57.44" height="14.51" rx="4.22" ry="4.22"/><rect class="cls-53" x="131.48" y="428.52" width="118.46" height="38.75" rx="8.2" ry="8.2"/><circle class="cls-54" cx="191.26" cy="518.19" r="8.86"/><path class="cls-29" d="M197.45,517.75a7.93,7.93,0,0,0-1-2.81,7.62,7.62,0,0,0-1.8-2.17,20,20,0,0,0-2.36-1.34c-.79-.47-1.61-.87-2.62-1.43a.1.1,0,0,1-.05-.15.12.12,0,0,1,.05-.05,4.55,4.55,0,0,1,3.38-.22,5.76,5.76,0,0,1,2.73,2.06,7.83,7.83,0,0,1,1.59,2.91,7.59,7.59,0,0,1,.24,3.2.1.1,0,0,1-.12.08A.11.11,0,0,1,197.45,517.75Z" transform="translate(1 1)"/><path class="cls-29" d="M190,524.6a7.7,7.7,0,0,1-3.15-.59,7.9,7.9,0,0,1-2.73-1.91,5.86,5.86,0,0,1-1.74-2.94,4.47,4.47,0,0,1,.6-3.33.11.11,0,0,1,.16,0,.1.1,0,0,1,0,.05c.44,1.06.74,1.93,1.12,2.76a21.46,21.46,0,0,0,1.07,2.49,8,8,0,0,0,2,2A7.85,7.85,0,0,0,190,524.4a.1.1,0,0,1,.07.12A.09.09,0,0,1,190,524.6Z" transform="translate(1 1)"/><path class="cls-21" d="M192,515.53a1.73,1.73,0,0,0-3.45,0c0,1,.77,2.28,1.72,2.28S192,516.48,192,515.53Z" transform="translate(1 1)"/><line class="cls-55" x1="191.26" y1="521.51" x2="191.26" y2="518.19"/></g><g id="mugs"><path id="handle" class="cls-56" d="M658.4,792.67c0-7.4-6-9.4-13.4-9.4s-13.4,2-13.4,9.4a13.4,13.4,0,1,0,26.8,0Z" transform="translate(1 1)"/><path id="base" class="cls-29" d="M634.4,774.21c0-.12,0-.24-.06-.36l-.23.14c-12.47,7.92-33.17,12.11-56.61,12.11s-44.27-4.23-56.72-12.17l-.3-.2-.09.48a58.36,58.36,0,0,0-.79,9.59,57.8,57.8,0,1,0,114.8-9.59Z" transform="translate(1 1)"/><ellipse id="rim" class="cls-29" cx="578.4" cy="775.77" rx="57" ry="14.7"/><path id="insideCup" class="cls-57" d="M626,776.38c0,2-2.35,3.86-6.47,5.47-8.36,3.26-24,5.45-42.13,5.45s-33.77-2.19-42.13-5.45c-4.12-1.61-6.47-3.48-6.47-5.47,0-6,21.57-10.91,48.6-10.91S626,770.36,626,776.38Z" transform="translate(1 1)"/><path id="handle-2" data-name="handle" class="cls-56" d="M808.4,792.67c0-7.4-6-9.4-13.4-9.4s-13.4,2-13.4,9.4a13.4,13.4,0,0,0,26.8,0Z" transform="translate(1 1)"/><path id="base-2" data-name="base" class="cls-29" d="M784.4,774.21c0-.12,0-.24-.06-.36l-.23.14c-12.47,7.92-33.17,12.11-56.61,12.11s-44.27-4.23-56.72-12.17l-.3-.2-.09.48a58.36,58.36,0,0,0-.79,9.59,57.8,57.8,0,1,0,114.8-9.59Z" transform="translate(1 1)"/><ellipse id="rim-2" data-name="rim" class="cls-29" cx="728.4" cy="775.77" rx="57" ry="14.7"/><path id="insideCup-2" data-name="insideCup" class="cls-57" d="M776,776.38c0,2-2.35,3.86-6.47,5.47-8.36,3.26-24,5.45-42.13,5.45s-33.77-2.19-42.13-5.45c-4.12-1.61-6.47-3.48-6.47-5.47,0-6,21.57-10.91,48.6-10.91S776,770.36,776,776.38Z" transform="translate(1 1)"/><path id="handle-3" data-name="handle" class="cls-56" d="M958.4,792.67c0-7.4-6-9.4-13.4-9.4s-13.4,2-13.4,9.4a13.4,13.4,0,0,0,26.8,0Z" transform="translate(1 1)"/><path id="base-3" data-name="base" class="cls-29" d="M934.4,774.21c0-.12,0-.24-.06-.36l-.23.14c-12.47,7.92-33.17,12.11-56.61,12.11s-44.27-4.23-56.72-12.17l-.3-.2-.09.48a58.36,58.36,0,0,0-.79,9.59,57.8,57.8,0,1,0,114.8-9.59Z" transform="translate(1 1)"/><ellipse id="rim-3" data-name="rim" class="cls-29" cx="878.4" cy="775.77" rx="57" ry="14.7"/><path id="insideCup-3" data-name="insideCup" class="cls-57" d="M926,776.38c0,2-2.35,3.86-6.47,5.47-8.36,3.26-24,5.45-42.13,5.45s-33.77-2.19-42.13-5.45c-4.12-1.61-6.47-3.48-6.47-5.47,0-6,21.57-10.91,48.6-10.91S926,770.36,926,776.38Z" transform="translate(1 1)"/><path id="handle-4" data-name="handle" class="cls-56" d="M1108.4,792.67c0-7.4-6-9.4-13.4-9.4s-13.4,2-13.4,9.4a13.4,13.4,0,1,0,26.8,0Z" transform="translate(1 1)"/><path id="base-4" data-name="base" class="cls-29" d="M1084.4,774.21c0-.12,0-.24-.06-.36l-.23.14c-12.47,7.92-33.17,12.11-56.61,12.11s-44.27-4.23-56.72-12.17l-.3-.2-.09.48a58.36,58.36,0,0,0-.79,9.59,57.8,57.8,0,1,0,114.8-9.59Z" transform="translate(1 1)"/><ellipse id="rim-4" data-name="rim" class="cls-29" cx="1028.4" cy="775.77" rx="57" ry="14.7"/><path id="insideCup-4" data-name="insideCup" class="cls-57" d="M1076,776.38c0,2-2.35,3.86-6.47,5.47-8.36,3.26-24,5.45-42.13,5.45s-33.77-2.19-42.13-5.45c-4.12-1.61-6.47-3.48-6.47-5.47,0-6,21.57-10.91,48.6-10.91S1076,770.36,1076,776.38Z" transform="translate(1 1)"/><path id="handle-5" data-name="handle" class="cls-56" d="M658.4,680.67c0-7.4-6-9.4-13.4-9.4s-13.4,2-13.4,9.4a13.4,13.4,0,0,0,26.8,0Z" transform="translate(1 1)"/><path id="base-5" data-name="base" class="cls-29" d="M634.4,662.21c0-.12,0-.24-.06-.36l-.23.14c-12.47,7.92-33.17,12.11-56.61,12.11s-44.27-4.23-56.72-12.17l-.3-.2-.09.48a58.36,58.36,0,0,0-.79,9.59,57.8,57.8,0,1,0,114.8-9.59Z" transform="translate(1 1)"/><ellipse id="rim-5" data-name="rim" class="cls-29" cx="578.4" cy="663.77" rx="57" ry="14.7"/><path id="insideCup-5" data-name="insideCup" class="cls-57" d="M626,664.38c0,2-2.35,3.86-6.47,5.47-8.36,3.26-24,5.45-42.13,5.45s-33.77-2.19-42.13-5.45c-4.12-1.61-6.47-3.48-6.47-5.47,0-6,21.57-10.91,48.6-10.91S626,658.36,626,664.38Z" transform="translate(1 1)"/><path id="handle-6" data-name="handle" class="cls-56" d="M808.4,680.67c0-7.4-6-9.4-13.4-9.4s-13.4,2-13.4,9.4a13.4,13.4,0,0,0,26.8,0Z" transform="translate(1 1)"/><path id="base-6" data-name="base" class="cls-29" d="M784.4,662.21c0-.12,0-.24-.06-.36l-.23.14c-12.47,7.92-33.17,12.11-56.61,12.11s-44.27-4.23-56.72-12.17l-.3-.2-.09.48a58.36,58.36,0,0,0-.79,9.59,57.8,57.8,0,1,0,114.8-9.59Z" transform="translate(1 1)"/><ellipse id="rim-6" data-name="rim" class="cls-29" cx="728.4" cy="663.77" rx="57" ry="14.7"/><path id="insideCup-6" data-name="insideCup" class="cls-57" d="M776,664.38c0,2-2.35,3.86-6.47,5.47-8.36,3.26-24,5.45-42.13,5.45s-33.77-2.19-42.13-5.45c-4.12-1.61-6.47-3.48-6.47-5.47,0-6,21.57-10.91,48.6-10.91S776,658.36,776,664.38Z" transform="translate(1 1)"/><path id="handle-7" data-name="handle" class="cls-56" d="M958.4,680.67c0-7.4-6-9.4-13.4-9.4s-13.4,2-13.4,9.4a13.4,13.4,0,0,0,26.8,0Z" transform="translate(1 1)"/><path id="base-7" data-name="base" class="cls-29" d="M934.4,662.21c0-.12,0-.24-.06-.36l-.23.14c-12.47,7.92-33.17,12.11-56.61,12.11s-44.27-4.23-56.72-12.17l-.3-.2-.09.48a58.36,58.36,0,0,0-.79,9.59,57.8,57.8,0,1,0,114.8-9.59Z" transform="translate(1 1)"/><ellipse id="rim-7" data-name="rim" class="cls-29" cx="878.4" cy="663.77" rx="57" ry="14.7"/><path id="insideCup-7" data-name="insideCup" class="cls-57" d="M926,664.38c0,2-2.35,3.86-6.47,5.47-8.36,3.26-24,5.45-42.13,5.45s-33.77-2.19-42.13-5.45c-4.12-1.61-6.47-3.48-6.47-5.47,0-6,21.57-10.91,48.6-10.91S926,658.36,926,664.38Z" transform="translate(1 1)"/><path id="handle-8" data-name="handle" class="cls-56" d="M1108.4,680.67c0-7.4-6-9.4-13.4-9.4s-13.4,2-13.4,9.4a13.4,13.4,0,1,0,26.8,0Z" transform="translate(1 1)"/><path id="base-8" data-name="base" class="cls-29" d="M1084.4,662.21c0-.12,0-.24-.06-.36l-.23.14c-12.47,7.92-33.17,12.11-56.61,12.11s-44.27-4.23-56.72-12.17l-.3-.2-.09.48a58.36,58.36,0,0,0-.79,9.59,57.8,57.8,0,1,0,114.8-9.59Z" transform="translate(1 1)"/><ellipse id="rim-8" data-name="rim" class="cls-29" cx="1028.4" cy="663.77" rx="57" ry="14.7"/><path id="insideCup-8" data-name="insideCup" class="cls-57" d="M1076,664.38c0,2-2.35,3.86-6.47,5.47-8.36,3.26-24,5.45-42.13,5.45s-33.77-2.19-42.13-5.45c-4.12-1.61-6.47-3.48-6.47-5.47,0-6,21.57-10.91,48.6-10.91S1076,658.36,1076,664.38Z" transform="translate(1 1)"/></g><g id="bwans"><path class="cls-58" d="M580.05,1079H503.24c-6.21,0-11.24-5.38-11.24-12V928c0-6.64,5-42,11.24-42h76.81c6.21,0,11.24,35.38,11.24,42v139C591.29,1073.62,586.26,1079,580.05,1079Z" transform="translate(1 1)"/><rect class="cls-58" x="502.91" y="877" width="79.47" height="11"/><path class="cls-59" d="M504.15,886q9.36-.59,18.7-.78c6.24-.16,12.47-.2,18.7-.22s12.47.06,18.7.22,12.47.39,18.7.78q-9.35.59-18.7.78c-6.23.16-12.46.2-18.7.22s-12.46-.06-18.7-.22S510.39,886.39,504.15,886Z" transform="translate(1 1)"/><text class="cls-60" transform="translate(507.43 950.63) scale(0.87 1)">ESPRESSO</text><path class="cls-58" d="M690.05,1079H613.24c-6.21,0-11.24-5.38-11.24-12V928c0-6.64,5-42,11.24-42h76.81c6.21,0,11.24,35.38,11.24,42v139C701.29,1073.62,696.26,1079,690.05,1079Z" transform="translate(1 1)"/><rect class="cls-58" x="612.91" y="877" width="79.47" height="11"/><path class="cls-59" d="M614.15,886q9.36-.59,18.7-.78c6.24-.16,12.47-.2,18.7-.22s12.47.06,18.7.22,12.47.39,18.7.78q-9.35.59-18.7.78c-6.23.16-12.46.2-18.7.22s-12.46-.06-18.7-.22S620.39,886.39,614.15,886Z" transform="translate(1 1)"/><text class="cls-60" transform="translate(617.43 950.63) scale(0.87 1)">ESPRESSO</text><path class="cls-58" d="M800.05,1079H723.24c-6.21,0-11.24-5.38-11.24-12V928c0-6.64,5-42,11.24-42h76.81c6.21,0,11.24,35.38,11.24,42v139C811.29,1073.62,806.26,1079,800.05,1079Z" transform="translate(1 1)"/><rect class="cls-58" x="722.91" y="877" width="79.47" height="11"/><path class="cls-59" d="M724.15,886q9.36-.59,18.7-.78c6.24-.16,12.47-.2,18.7-.22s12.47.06,18.7.22,12.47.39,18.7.78q-9.35.59-18.7.78c-6.23.16-12.46.2-18.7.22s-12.46-.06-18.7-.22S730.39,886.39,724.15,886Z" transform="translate(1 1)"/><text class="cls-60" transform="translate(727.43 950.63) scale(0.87 1)">ESPRESSO</text><path class="cls-58" d="M910.05,1079H833.24c-6.21,0-11.24-5.38-11.24-12V928c0-6.64,5-42,11.24-42h76.81c6.21,0,11.24,35.38,11.24,42v139C921.29,1073.62,916.26,1079,910.05,1079Z" transform="translate(1 1)"/><rect class="cls-58" x="832.91" y="877" width="79.47" height="11"/><path class="cls-59" d="M834.15,886q9.36-.59,18.7-.78c6.24-.16,12.47-.2,18.7-.22s12.47.06,18.7.22,12.47.39,18.7.78q-9.35.59-18.7.78c-6.23.16-12.46.2-18.7.22s-12.46-.06-18.7-.22S840.39,886.39,834.15,886Z" transform="translate(1 1)"/><rect class="cls-61" x="835.47" y="963.91" width="74.17" height="85.28" rx="9.04" ry="9.04"/><text class="cls-62" transform="translate(845.81 950.63) scale(0.87 1)">C<tspan class="cls-63" x="10.6" y="0">OFFEE</tspan></text><path class="cls-64" d="M836,933.92a5.53,5.53,0,0,1,5-7.92h58.5a12.67,12.67,0,0,1,12.67,12.47l.4,117.76A11.64,11.64,0,0,1,901,1067.91l-56.84.07c-6.27,0-17.67-9.44-11.65-11.21C900,1037,847,956.73,836,933.92Z" transform="translate(1 1)"/><path class="cls-58" d="M1020.05,1079H943.24c-6.21,0-11.24-5.38-11.24-12V928c0-6.64,5-42,11.24-42h76.81c6.21,0,11.24,35.38,11.24,42v139C1031.29,1073.62,1026.26,1079,1020.05,1079Z" transform="translate(1 1)"/><rect class="cls-58" x="942.91" y="877" width="79.47" height="11"/><path class="cls-59" d="M944.15,886q9.36-.59,18.7-.78c6.24-.16,12.47-.2,18.7-.22s12.47.06,18.7.22,12.47.39,18.7.78q-9.35.59-18.7.78c-6.23.16-12.46.2-18.7.22s-12.46-.06-18.7-.22S950.39,886.39,944.15,886Z" transform="translate(1 1)"/><rect class="cls-61" x="945.47" y="963.91" width="74.17" height="85.28" rx="9.04" ry="9.04"/><text class="cls-62" transform="translate(955.81 950.63) scale(0.87 1)">C<tspan class="cls-63" x="10.6" y="0">OFFEE</tspan></text><path class="cls-64" d="M946,933.92a5.53,5.53,0,0,1,5-7.92h58.5a12.67,12.67,0,0,1,12.67,12.47l.4,117.76a11.64,11.64,0,0,1-11.62,11.68l-56.84.07c-6.27,0-17.67-9.44-11.65-11.21C1010,1037,957,956.73,946,933.92Z" transform="translate(1 1)"/><path class="cls-58" d="M1130.05,1079h-76.81c-6.21,0-11.24-5.38-11.24-12V928c0-6.64,5-42,11.24-42h76.81c6.21,0,11.24,35.38,11.24,42v139C1141.29,1073.62,1136.26,1079,1130.05,1079Z" transform="translate(1 1)"/><rect class="cls-58" x="1052.91" y="877" width="79.47" height="11"/><path class="cls-59" d="M1054.15,886q9.36-.59,18.7-.78c6.24-.16,12.47-.2,18.7-.22s12.47.06,18.7.22,12.47.39,18.7.78q-9.35.59-18.7.78c-6.23.16-12.46.2-18.7.22s-12.46-.06-18.7-.22S1060.39,886.39,1054.15,886Z" transform="translate(1 1)"/><rect class="cls-61" x="1055.47" y="963.91" width="74.17" height="85.28" rx="9.04" ry="9.04"/><text class="cls-62" transform="translate(1065.81 950.63) scale(0.87 1)">C<tspan class="cls-63" x="10.6" y="0">OFFEE</tspan></text><path class="cls-64" d="M1056,933.92a5.53,5.53,0,0,1,5-7.92h58.5a12.67,12.67,0,0,1,12.67,12.47l.4,117.76a11.64,11.64,0,0,1-11.62,11.68l-56.84.07c-6.27,0-17.67-9.44-11.65-11.21C1120,1037,1067,956.73,1056,933.92Z" transform="translate(1 1)"/><path class="cls-64" d="M582.6,1056.23A11.64,11.64,0,0,1,571,1067.91l-56.84.07c-6.27,0-17.67-9.44-11.65-11.21a57.51,57.51,0,0,0,18.15-8.58h49a9,9,0,0,0,9-9V972a9,9,0,0,0-9-9H521c-5.93-12.33-12-22.79-15-29a5.53,5.53,0,0,1,5-7.92h58.5a12.67,12.67,0,0,1,12.67,12.47Z" transform="translate(1 1)"/><path class="cls-64" d="M692.6,1056.23A11.64,11.64,0,0,1,681,1067.91l-56.84.07c-6.27,0-17.67-9.44-11.65-11.21a57.51,57.51,0,0,0,18.15-8.58h49a9,9,0,0,0,9-9V972a9,9,0,0,0-9-9H631c-5.93-12.33-12-22.79-15-29a5.53,5.53,0,0,1,5-7.92h58.5a12.67,12.67,0,0,1,12.67,12.47Z" transform="translate(1 1)"/><path class="cls-64" d="M802.6,1056.23A11.64,11.64,0,0,1,791,1067.91l-56.84.07c-6.27,0-17.67-9.44-11.65-11.21a57.51,57.51,0,0,0,18.15-8.58h49a9,9,0,0,0,9-9V972a9,9,0,0,0-9-9H741c-5.93-12.33-12-22.79-15-29a5.53,5.53,0,0,1,5-7.92h58.5a12.67,12.67,0,0,1,12.67,12.47Z" transform="translate(1 1)"/><path class="cls-65" d="M578.64,972v67.2a9,9,0,0,1-9,9h-49c26.51-19.57,13.87-57.27.39-85.28H569.6A9,9,0,0,1,578.64,972Z" transform="translate(1 1)"/><path class="cls-7" d="M520.64,1048.19h-7.13a9,9,0,0,1-9-9V972a9,9,0,0,1,9-9H521C534.51,990.92,547.15,1028.62,520.64,1048.19Z" transform="translate(1 1)"/><path class="cls-65" d="M688.64,972v67.2a9,9,0,0,1-9,9h-49c26.51-19.57,13.87-57.27.39-85.28H679.6A9,9,0,0,1,688.64,972Z" transform="translate(1 1)"/><path class="cls-7" d="M630.64,1048.19h-7.13a9,9,0,0,1-9-9V972a9,9,0,0,1,9-9H631C644.51,990.92,657.15,1028.62,630.64,1048.19Z" transform="translate(1 1)"/><path class="cls-65" d="M798.64,972v67.2a9,9,0,0,1-9,9h-49c26.51-19.57,13.87-57.27.39-85.28H789.6A9,9,0,0,1,798.64,972Z" transform="translate(1 1)"/><path class="cls-7" d="M740.64,1048.19h-7.13a9,9,0,0,1-9-9V972a9,9,0,0,1,9-9H741C754.51,990.92,767.15,1028.62,740.64,1048.19Z" transform="translate(1 1)"/></g></svg>