<svg id="caramel" xmlns="http://www.w3.org/2000/svg" viewBox="0 0 72.4 308.3"><defs><style>.cls-1,.cls-2,.cls-3,.cls-4,.cls-5{stroke:#999;}.cls-1,.cls-2,.cls-3,.cls-4,.cls-5,.cls-7,.cls-8{stroke-miterlimit:10;}.cls-2{fill:#141414;}.cls-3{fill:#ccc;fill-opacity:0.2;}.cls-4{fill:#ba8043;fill-opacity:0.75;}.cls-5{fill:none;}.cls-6{fill:#96fff8;}.cls-7,.cls-8{fill:#fff;stroke:#fff;stroke-linecap:round;stroke-opacity:0.6;stroke-width:5px;}.cls-7{fill-opacity:0.6;}</style></defs><title>caramel</title><rect class="cls-1" x="33.05" y="7.5" width="6.3" height="46.9"/><rect class="cls-2" x="33.05" y="54.4" width="6.3" height="245.7"/><polygon class="cls-2" points="44.95 8.9 27.45 8.9 26.05 0.5 46.35 0.5 44.95 8.9"/><polygon class="cls-2" points="40.05 11 32.35 11 30.95 5.4 41.45 5.4 40.05 11"/><rect class="cls-2" x="27.45" y="54.4" width="17.5" height="10.5"/><path class="cls-3" d="M797.1,340.65c6.24-10.37,10-19.6,9.8-19.6h18.55c-.16,0,3.48,9.24,9.65,19.6" transform="translate(-779.8 -242.85)"/><path class="cls-3" d="M851.69,368.24c0,.07,0,.14,0,.2V382H780.3V368.44c0-.06,0-.13,0-.2" transform="translate(-779.8 -242.85)"/><path class="cls-4" d="M851.7,495.35v27.43c0,11.52-2.34,27.87-13.87,27.87H794.17c-11.53,0-13.87-16.35-13.87-27.87V495.35Z" transform="translate(-779.8 -242.85)"/><rect class="cls-2" x="23.95" y="61.4" width="24.5" height="17.5"/><path class="cls-4" d="M851.7,368.44V382H780.3V368.44c0-1.94,5.78-8.92,10.4-16.94,2-3.53,4.24-7.26,6.4-10.85h38c2.13,3.59,4.31,7.32,6.31,10.85C846,359.52,851.7,366.49,851.7,368.44Z" transform="translate(-779.8 -242.85)"/><line class="cls-5" x1="35.99" y1="61.4" x2="35.99" y2="78.9"/><line class="cls-5" x1="32.49" y1="61.4" x2="32.49" y2="78.9"/><line class="cls-5" x1="28.99" y1="61.4" x2="28.99" y2="78.9"/><line class="cls-5" x1="25.49" y1="61.4" x2="25.49" y2="78.9"/><line class="cls-5" x1="42.99" y1="61.4" x2="42.99" y2="78.9"/><line class="cls-5" x1="46.49" y1="61.4" x2="46.49" y2="78.9"/><line class="cls-5" x1="39.49" y1="61.4" x2="39.49" y2="78.9"/><rect class="cls-6" x="0.5" y="139.1" width="71.4" height="113.4"/><path d="M797.76,422.64a7,7,0,0,1-2.45,2.3,6.79,6.79,0,0,1-3.45.91,7.28,7.28,0,0,1-5.41-2.08,7.37,7.37,0,0,1-2.06-5.4,8,8,0,0,1,2.16-5.56,6.94,6.94,0,0,1,5.31-2.34,6.27,6.27,0,0,1,5.29,2.28,1.29,1.29,0,0,1,.24.39c0,.22-.1.32-.28.32s-.23-.08-.39-.26a6.25,6.25,0,0,0-4.6-2.25,4.45,4.45,0,0,0-4.06,2.3,9.73,9.73,0,0,0-1.2,5.12,8.48,8.48,0,0,0,1.29,5,4.5,4.5,0,0,0,3.92,1.89,5.55,5.55,0,0,0,3-.84,6.53,6.53,0,0,0,2.27-2.31c.12-.2.21-.3.28-.3a.42.42,0,0,1,.22.09,1.18,1.18,0,0,1,.24.19A1.62,1.62,0,0,1,797.76,422.64Z" transform="translate(-779.8 -242.85)"/><path d="M803.91,419.65a2.41,2.41,0,0,1,1.49.5v0a.4.4,0,0,1,.28-.44,1.88,1.88,0,0,1,.55,0,2,2,0,0,1,.55,0,.41.41,0,0,1,.29.44v4.92a.42.42,0,0,1-.28.44,2.08,2.08,0,0,1-.55,0,1.84,1.84,0,0,1-.54,0,.41.41,0,0,1-.28-.44,2.66,2.66,0,0,1-1.8.65,2.61,2.61,0,0,1-2-.81,2.83,2.83,0,0,1-.77-2,3.36,3.36,0,0,1,.83-2.34A2.86,2.86,0,0,1,803.91,419.65Zm-.09.54a2.15,2.15,0,0,0-1.66.76,2.62,2.62,0,0,0-.67,1.79,2.48,2.48,0,0,0,.6,1.69,2.08,2.08,0,0,0,1.64.69,2,2,0,0,0,1.67-.74V421A1.89,1.89,0,0,0,803.82,420.19Z" transform="translate(-779.8 -242.85)"/><path d="M813.77,421.06a.91.91,0,0,0-.3-.68,1,1,0,0,0-.77-.3,1.32,1.32,0,0,0-.9.44,1.21,1.21,0,0,0-.44.78v3.75a.41.41,0,0,1-.28.44,2.08,2.08,0,0,1-.55,0,1.88,1.88,0,0,1-.55,0,.41.41,0,0,1-.29-.44v-5a.41.41,0,0,1,.29-.44,2.19,2.19,0,0,1,.54,0,1.79,1.79,0,0,1,.54.05.41.41,0,0,1,.28.45,2.41,2.41,0,0,1,1.41-.54,1.72,1.72,0,0,1,1.3.54,1.23,1.23,0,0,1,.4.93,2,2,0,0,1-.59,1.19,1.34,1.34,0,0,1-1.17.44q-.39,0-.39-.24c0-.2.12-.3.37-.3a1.2,1.2,0,0,0,.78-.28A1,1,0,0,0,813.77,421.06Z" transform="translate(-779.8 -242.85)"/><path d="M819.94,419.65a2.37,2.37,0,0,1,1.49.5v0a.41.41,0,0,1,.29-.44,1.88,1.88,0,0,1,.55,0,2.08,2.08,0,0,1,.55,0,.4.4,0,0,1,.28.44v4.92a.41.41,0,0,1-.28.44,1.94,1.94,0,0,1-.54,0,1.79,1.79,0,0,1-.54,0,.41.41,0,0,1-.29-.44,2.62,2.62,0,0,1-1.8.65,2.59,2.59,0,0,1-2-.81,2.83,2.83,0,0,1-.77-2,3.36,3.36,0,0,1,.83-2.34A2.84,2.84,0,0,1,819.94,419.65Zm-.08.54a2.14,2.14,0,0,0-1.66.76,2.62,2.62,0,0,0-.67,1.79,2.48,2.48,0,0,0,.6,1.69,2.07,2.07,0,0,0,1.64.69,2,2,0,0,0,1.66-.74V421A1.87,1.87,0,0,0,819.86,420.19Z" transform="translate(-779.8 -242.85)"/><path d="M831.39,421.49v3.56a.41.41,0,0,1-.28.44,2.08,2.08,0,0,1-.55,0,1.88,1.88,0,0,1-.55,0,.41.41,0,0,1-.29-.44v-4.23c0-.32-.07-.52-.21-.61a1.6,1.6,0,0,0-.55-.06,1.76,1.76,0,0,0-1,.41c-.36.27-.54.52-.54.74v3.75a.41.41,0,0,1-.29.44,2,2,0,0,1-.55,0,1.79,1.79,0,0,1-.54,0,.4.4,0,0,1-.29-.44v-5a.41.41,0,0,1,.28-.45,1.7,1.7,0,0,1,.54-.05,1.93,1.93,0,0,1,.55.05.42.42,0,0,1,.28.45c0,.15.1.15.3,0a3.26,3.26,0,0,1,1.7-.56,1.94,1.94,0,0,1,1.54.69,1.06,1.06,0,0,0,.56-.13,3.27,3.27,0,0,1,1.74-.56,2.28,2.28,0,0,1,1.58.52,1.85,1.85,0,0,1,.59,1.45v3.56a.41.41,0,0,1-.29.44,2,2,0,0,1-.55,0,1.88,1.88,0,0,1-.55,0,.41.41,0,0,1-.29-.44v-4.23c0-.51-.24-.76-.73-.76a2,2,0,0,0-1,.32,1.12,1.12,0,0,0-.58.72Z" transform="translate(-779.8 -242.85)"/><path d="M840.13,423.23h-.35a.77.77,0,0,0-.49.12.41.41,0,0,0-.19.41,6.26,6.26,0,0,0,.13.94.86.86,0,0,0,.55.42,3.74,3.74,0,0,0,.75,0,2.8,2.8,0,0,0,1.53-.5.45.45,0,0,1,.2-.06c.12,0,.18.06.18.2a.36.36,0,0,1-.11.26,2.56,2.56,0,0,1-1.78.64,3.06,3.06,0,0,1-2.22-.86,2.84,2.84,0,0,1-.9-2.14,3.06,3.06,0,0,1,1-2.27,3.46,3.46,0,0,1,2.51-.93,2.24,2.24,0,0,1,1.32.41,1.41,1.41,0,0,1,.65,1.19,1.84,1.84,0,0,1-.73,1.59A3.33,3.33,0,0,1,840.13,423.23Zm.1-.46a2.39,2.39,0,0,0,1.38-.42,1.31,1.31,0,0,0,.61-1.11c0-.77-.5-1.16-1.51-1.16a1.58,1.58,0,0,0-1.46.62,7.26,7.26,0,0,0-.15,1.53c0,.17.13.31.43.41A2,2,0,0,0,840.23,422.77Z" transform="translate(-779.8 -242.85)"/><path d="M846.12,425.53a1.84,1.84,0,0,1-.55,0,.41.41,0,0,1-.29-.44V411a.4.4,0,0,1,.29-.43,1.69,1.69,0,0,1,.55-.05,1.93,1.93,0,0,1,.55.05.39.39,0,0,1,.28.43v14a.41.41,0,0,1-.28.44A2.08,2.08,0,0,1,846.12,425.53Z" transform="translate(-779.8 -242.85)"/><line class="cls-7" x1="6.8" y1="125.45" x2="52.3" y2="125.45"/><line class="cls-7" x1="59.3" y1="125.45" x2="66.3" y2="125.45"/><line class="cls-8" x1="5.4" y1="288.96" x2="35.15" y2="288.96"/><line class="cls-8" x1="40.75" y1="288.9" x2="47.05" y2="288.9"/><line class="cls-8" x1="52.65" y1="288.9" x2="66.65" y2="288.9"/></svg>