<svg id="caramel" xmlns="http://www.w3.org/2000/svg" viewBox="0 0 72.4 308.3"><defs><style>.cls-1{fill:#141414;}.cls-1,.cls-2,.cls-3,.cls-4{stroke:#999;}.cls-1,.cls-2,.cls-3,.cls-4,.cls-7,.cls-8{stroke-miterlimit:10;}.cls-2{fill:#ccc;fill-opacity:0.2;}.cls-3{fill:#ba8043;fill-opacity:0.75;}.cls-4{fill:none;}.cls-5{fill:#96fff8;}.cls-6{font-size:21.7px;font-family:Parisish, Parisish;letter-spacing:0.01em;}.cls-7,.cls-8{fill:#fff;stroke:#fff;stroke-linecap:round;stroke-opacity:0.6;stroke-width:5px;}.cls-7{fill-opacity:0.6;}</style></defs><title>caramel</title><rect class="cls-1" x="33.05" y="7.5" width="6.3" height="292.6"/><polygon class="cls-1" points="44.95 8.9 27.45 8.9 26.05 0.5 46.35 0.5 44.95 8.9"/><polygon class="cls-1" points="40.05 11 32.35 11 30.95 5.4 41.45 5.4 40.05 11"/><rect class="cls-1" x="27.45" y="54.4" width="17.5" height="10.5"/><path class="cls-2" d="M797.1,340.65c6.24-10.37,10-19.6,9.8-19.6h18.55c-.16,0,3.48,9.24,9.65,19.6" transform="translate(-779.8 -242.85)"/><path class="cls-2" d="M851.69,368.24c0,.07,0,.14,0,.2V382H780.3V368.44c0-.06,0-.13,0-.2" transform="translate(-779.8 -242.85)"/><path class="cls-3" d="M851.7,495.35v27.43c0,11.52-2.34,27.87-13.87,27.87H794.17c-11.53,0-13.87-16.35-13.87-27.87V495.35Z" transform="translate(-779.8 -242.85)"/><rect class="cls-1" x="23.95" y="61.4" width="24.5" height="17.5"/><path class="cls-3" d="M851.7,368.44V382H780.3V368.44c0-1.94,5.78-8.92,10.4-16.94,2-3.53,4.24-7.26,6.4-10.85h38c2.13,3.59,4.31,7.32,6.31,10.85C846,359.52,851.7,366.49,851.7,368.44Z" transform="translate(-779.8 -242.85)"/><line class="cls-4" x1="35.99" y1="61.4" x2="35.99" y2="78.9"/><line class="cls-4" x1="32.49" y1="61.4" x2="32.49" y2="78.9"/><line class="cls-4" x1="28.99" y1="61.4" x2="28.99" y2="78.9"/><line class="cls-4" x1="25.49" y1="61.4" x2="25.49" y2="78.9"/><line class="cls-4" x1="42.99" y1="61.4" x2="42.99" y2="78.9"/><line class="cls-4" x1="46.49" y1="61.4" x2="46.49" y2="78.9"/><line class="cls-4" x1="39.49" y1="61.4" x2="39.49" y2="78.9"/><rect class="cls-5" x="0.5" y="139.1" width="71.4" height="113.4"/><text class="cls-6" transform="translate(3.64 182.68)">Caramel</text><line class="cls-7" x1="6.8" y1="125.45" x2="52.3" y2="125.45"/><line class="cls-7" x1="59.3" y1="125.45" x2="66.3" y2="125.45"/><line class="cls-8" x1="5.4" y1="288.96" x2="35.15" y2="288.96"/><line class="cls-8" x1="40.75" y1="288.9" x2="47.05" y2="288.9"/><line class="cls-8" x1="52.65" y1="288.9" x2="66.65" y2="288.9"/></svg>