<svg id="Layer_35" data-name="Layer 35" xmlns="http://www.w3.org/2000/svg" viewBox="0 0 73 181"><defs><style>.cls-1{fill:#f2f2f2;}.cls-2{fill:#fbb03b;}.cls-3{fill:#ffb747;}.cls-4{fill:#b3b3b3;}.cls-5{fill:#ccc;}</style></defs><title>half and half</title><rect class="cls-1" y="32" width="73" height="149"/><polygon class="cls-1" points="0 32 7 6 66 6 73 32 0 32"/><rect class="cls-1" x="7" width="59" height="6"/><ellipse class="cls-2" cx="36" cy="23" rx="11" ry="4"/><rect class="cls-2" x="25" y="18" width="22" height="5"/><ellipse class="cls-3" cx="36" cy="18" rx="11" ry="4"/><ellipse class="cls-2" cx="36" cy="18" rx="1.09" ry="0.4"/><path class="cls-4" d="M1308,896c2.46-.21,4.92-.34,7.38-.5h44.24c2.46.17,4.92.3,7.38.5-2.46.2-4.92.33-7.38.5h-44.24C1312.92,896.34,1310.46,896.21,1308,896Z" transform="translate(-1301 -890)"/><path class="cls-4" d="M1302,922.5c3-.21,5.92-.34,8.88-.5h53.24c3,.17,5.92.3,8.88.5-3,.2-5.92.33-8.88.5h-53.24C1307.92,922.84,1305,922.71,1302,922.5Z" transform="translate(-1301 -890)"/><ellipse class="cls-2" cx="1337.5" cy="976.5" rx="26.51" ry="25.19" transform="translate(-1450.47 -642.46) rotate(-10.02)"/><path class="cls-1" d="M1320.53,962.26l.85,4.81,3.51-.62-.85-4.81,2.1-.37,2.12,12-2.1.37-.85-4.82-3.51.62.85,4.81-2.1.37-2.12-12Z" transform="translate(-1301 -890)"/><path class="cls-1" d="M1331.79,960l7,11.42-2.28.4-1-1.7-3.6.63-.38,2-2.28.4Zm2.43,8.13-1.41-2.37-.52,2.71Z" transform="translate(-1301 -890)"/><path class="cls-1" d="M1339.64,958.89l1.7,9.61,4.21-.74.43,2.4-6.33,1.12-2.12-12Z" transform="translate(-1301 -890)"/><path class="cls-1" d="M1351.09,956.84l.42,2.41-4.22.74.43,2.42,3.16-.55.43,2.4-3.16.56.85,4.82-2.11.38L1344.76,958Z" transform="translate(-1301 -890)"/><path class="cls-1" d="M1323.76,980.58l.85,4.81,3.51-.62-.85-4.8,2.1-.37,2.12,12-2.1.37-.85-4.81-3.51.62.85,4.81-2.1.37-2.12-12Z" transform="translate(-1301 -890)"/><path class="cls-1" d="M1335,978.35l7,11.41-2.28.41-1-1.71-3.59.64-.39,1.95-2.28.4Zm2.43,8.13-1.41-2.37-.52,2.71Z" transform="translate(-1301 -890)"/><path class="cls-1" d="M1342.87,977.21l1.7,9.62,4.21-.74.43,2.4-6.33,1.11-2.12-12Z" transform="translate(-1301 -890)"/><path class="cls-1" d="M1354.32,975.17l.42,2.4-4.21.75.42,2.42,3.17-.56.42,2.41-3.16.56.85,4.82-2.11.37L1348,976.28Z" transform="translate(-1301 -890)"/><path class="cls-1" d="M1333.38,973.6l2.48,3.63-.84.15-.37-.54-1.32.24-.16.63-.84.16Zm.84,2.61-.5-.76-.21.88Z" transform="translate(-1301 -890)"/><path class="cls-1" d="M1338.22,975l-.39-2.15.78-.14.72,4-2.74-1.8L1337,977l-.78.14-.71-4Z" transform="translate(-1301 -890)"/><path class="cls-1" d="M1340.13,972.46a2,2,0,0,1,1.51.31,1.91,1.91,0,0,1,.77,1.28,1.89,1.89,0,0,1-.27,1.46,1.93,1.93,0,0,1-1.32.82l-1,.19-.69-3.87,1-.19Zm.13.77-.25,0,.42,2.32.26,0a1.18,1.18,0,0,0-.43-2.33Z" transform="translate(-1301 -890)"/><path class="cls-5" d="M1304.5,1065.5s39,0,53-7c0,0,10-7,11-37s5,37,0,42-22.82,5-30.41,5.5S1304.5,1065.5,1304.5,1065.5Z" transform="translate(-1301 -890)"/></svg>