<svg id="milk" xmlns="http://www.w3.org/2000/svg" height='100px' viewBox="0 0 324.23 392.56"><defs><style>.cls-1{fill:#f2f2f2;}.cls-2{fill:#d11d25;}</style></defs><title>milk</title><path class="cls-1" d="M674.09,592c-1.2-27.48-7.45-152.42-24.45-208.69a30,30,0,0,0-14.06-17.08l-74.43-42.9a36.86,36.86,0,0,0-18.39-4.83H472.83a37.64,37.64,0,0,0-14.55,2.91l-45.4,19.22c-9.31,3.93-16,11.41-18.27,20.29L350.69,535.1a25.93,25.93,0,0,0-.81,6.43v56a25.8,25.8,0,0,0,.42,4.63c1.85,10.37,10.07,50.8,26.4,59,14.88,7.49,78.08,12.52,103.63,14.28a37.22,37.22,0,0,0,19.9-4.14l6.5-3.44a37.62,37.62,0,0,1,32-1.22l11.54,5a37.74,37.74,0,0,0,21.9,2.32l60.17-11.56c11.58-2.22,21-9.66,24.74-19.58l15.26-40.38A26.4,26.4,0,0,0,674.09,592ZM434.34,463s-13.4,27.58-24.13,0,10.73-90.6,11.62-96.12,12.51-7.09,12.51-7.09a32.36,32.36,0,0,1,17,10.24C451.32,379.52,434.34,463,434.34,463Z" transform="translate(-349.88 -283)"/><rect class="cls-1" x="126.37" y="27.58" width="71.5" height="14.18"/><rect class="cls-1" x="119.66" y="23.64" width="84.91" height="3.94"/><path class="cls-2" d="M135.77,0h52.7a9.4,9.4,0,0,1,9.4,9.4V23.64a0,0,0,0,1,0,0h-71.5a0,0,0,0,1,0,0V9.4A9.4,9.4,0,0,1,135.77,0Z"/></svg>