<svg id="mocha" xmlns="http://www.w3.org/2000/svg" viewBox="0 0 72.4 308.3"><defs><style>.cls-1,.cls-2,.cls-3,.cls-4,.cls-5{stroke:#999;}.cls-1,.cls-2,.cls-3,.cls-4,.cls-5,.cls-7{stroke-miterlimit:10;}.cls-2{fill:#141414;}.cls-3{fill:#ccc;fill-opacity:0.2;}.cls-4{fill:#241309;}.cls-5,.cls-7{fill:none;}.cls-6{fill:#a9ff99;}.cls-7{stroke:#fff;stroke-linecap:round;stroke-width:5px;}</style></defs><title>mocha</title><rect class="cls-1" x="33.05" y="7.5" width="6.3" height="46.9"/><rect class="cls-2" x="33.05" y="54.4" width="6.3" height="245.7"/><polygon class="cls-2" points="44.95 8.9 27.45 8.9 26.05 0.5 46.35 0.5 44.95 8.9"/><polygon class="cls-2" points="40.05 11 32.35 11 30.95 5.4 41.45 5.4 40.05 11"/><rect class="cls-2" x="27.45" y="54.4" width="17.5" height="10.5"/><path class="cls-3" d="M877.1,340.65c6.24-10.37,10-19.6,9.8-19.6h18.55c-.16,0,3.48,9.24,9.65,19.6" transform="translate(-859.8 -242.85)"/><path class="cls-3" d="M931.69,368.24c0,.07,0,.14,0,.2V382H860.3V368.44c0-.06,0-.13,0-.2" transform="translate(-859.8 -242.85)"/><path class="cls-4" d="M931.7,495.35v27.43c0,11.52-2.34,27.87-13.87,27.87H874.17c-11.53,0-13.87-16.35-13.87-27.87V495.35Z" transform="translate(-859.8 -242.85)"/><rect class="cls-2" x="23.95" y="61.4" width="24.5" height="17.5"/><path class="cls-4" d="M931.7,368.44V382H860.3V368.44c0-1.94,5.78-8.92,10.4-16.94,2-3.53,4.24-7.26,6.4-10.85h38c2.13,3.59,4.31,7.32,6.31,10.85C926,359.52,931.7,366.49,931.7,368.44Z" transform="translate(-859.8 -242.85)"/><line class="cls-5" x1="35.99" y1="61.4" x2="35.99" y2="78.9"/><line class="cls-5" x1="32.49" y1="61.4" x2="32.49" y2="78.9"/><line class="cls-5" x1="28.99" y1="61.4" x2="28.99" y2="78.9"/><line class="cls-5" x1="25.49" y1="61.4" x2="25.49" y2="78.9"/><line class="cls-5" x1="42.99" y1="61.4" x2="42.99" y2="78.9"/><line class="cls-5" x1="46.49" y1="61.4" x2="46.49" y2="78.9"/><line class="cls-5" x1="39.49" y1="61.4" x2="39.49" y2="78.9"/><rect class="cls-6" x="0.5" y="139.1" width="71.4" height="113.4"/><path d="M870.53,416.09q-.24,0-.24.39V425a1.64,1.64,0,0,1,0,.39c0,.1-.12.15-.28.15s-.25,0-.28-.15a1.49,1.49,0,0,1,0-.4V411.12a1.48,1.48,0,0,1,0-.41s.11-.09.27-.13.39.06.56.37q4.23,7.8,6.17,11.26c.08.17.18.26.28.26s.17-.08.26-.24l6.1-11.33a.51.51,0,0,1,.45-.32c.25,0,.37.19.37.58V425c0,.36-.4.54-1.19.54s-1.2-.18-1.2-.54v-9.05c0-.22,0-.33-.13-.33s-.14.08-.21.22l-5,9.31c-.09.14-.19.22-.29.22s-.22-.09-.32-.26q-2.42-4.12-5-8.75A.43.43,0,0,0,870.53,416.09Z" transform="translate(-859.8 -242.85)"/><path d="M888.72,422.63a2.9,2.9,0,0,1,.92-2.17,3,3,0,0,1,2.22-.9,3.09,3.09,0,0,1,2.23.9,3,3,0,0,1,0,4.35,3.12,3.12,0,0,1-2.23.89,3.08,3.08,0,0,1-2.22-.89A2.92,2.92,0,0,1,888.72,422.63Zm1.82-2a13.28,13.28,0,0,0,0,4,1.4,1.4,0,0,0,1.3.54,2.52,2.52,0,0,0,1.86-.71,2.47,2.47,0,0,0,.7-1.8,2.54,2.54,0,0,0-.69-1.81,2.47,2.47,0,0,0-1.87-.74A1.4,1.4,0,0,0,890.54,420.64Z" transform="translate(-859.8 -242.85)"/><path d="M898.09,422.63a2.92,2.92,0,0,1,.91-2.17,3.06,3.06,0,0,1,2.24-.9,2.4,2.4,0,0,1,1.56.68.36.36,0,0,1,.11.26c0,.13-.06.19-.18.19a.38.38,0,0,1-.19-.06,3,3,0,0,0-1.31-.53,1.43,1.43,0,0,0-1.32.54,13.28,13.28,0,0,0,0,4,1.43,1.43,0,0,0,1.32.54,3,3,0,0,0,1.31-.54.32.32,0,0,1,.19-.07c.12,0,.18.07.18.2a.36.36,0,0,1-.11.26,2.37,2.37,0,0,1-1.56.69,3.09,3.09,0,0,1-2.24-.89A3,3,0,0,1,898.09,422.63Z" transform="translate(-859.8 -242.85)"/><path d="M912.09,421.49v3.56a.41.41,0,0,1-.29.44,2,2,0,0,1-.55,0,1.88,1.88,0,0,1-.55,0,.41.41,0,0,1-.28-.44v-4.23c0-.32-.1-.52-.3-.61a2,2,0,0,0-.62-.06,1.92,1.92,0,0,0-1,.41c-.38.27-.57.52-.57.74v3.75a.41.41,0,0,1-.29.44,2,2,0,0,1-.55,0,1.88,1.88,0,0,1-.55,0,.41.41,0,0,1-.28-.44V411a.39.39,0,0,1,.28-.43,1.73,1.73,0,0,1,.55-.05,1.88,1.88,0,0,1,.55.05.4.4,0,0,1,.29.43v8.92c0,.25.12.3.32.17a3.19,3.19,0,0,1,1.73-.58,2.22,2.22,0,0,1,1.51.57A1.82,1.82,0,0,1,912.09,421.49Z" transform="translate(-859.8 -242.85)"/><path d="M918.52,419.65a2.41,2.41,0,0,1,1.49.5v0a.4.4,0,0,1,.28-.44,1.88,1.88,0,0,1,.55,0,2,2,0,0,1,.55,0,.41.41,0,0,1,.29.44v4.92a.42.42,0,0,1-.28.44,2.08,2.08,0,0,1-.55,0,1.84,1.84,0,0,1-.54,0,.41.41,0,0,1-.28-.44,2.66,2.66,0,0,1-1.8.65,2.61,2.61,0,0,1-2-.81,2.83,2.83,0,0,1-.77-2,3.36,3.36,0,0,1,.83-2.34A2.86,2.86,0,0,1,918.52,419.65Zm-.09.54a2.15,2.15,0,0,0-1.66.76,2.62,2.62,0,0,0-.67,1.79,2.48,2.48,0,0,0,.6,1.69,2.08,2.08,0,0,0,1.64.69,2,2,0,0,0,1.67-.74V421A1.89,1.89,0,0,0,918.43,420.19Z" transform="translate(-859.8 -242.85)"/><line class="cls-7" x1="6.8" y1="125.45" x2="52.3" y2="125.45"/><line class="cls-7" x1="59.3" y1="125.45" x2="66.3" y2="125.45"/><line class="cls-7" x1="5.4" y1="288.96" x2="35.15" y2="288.96"/><line class="cls-7" x1="40.75" y1="288.9" x2="47.05" y2="288.9"/><line class="cls-7" x1="52.65" y1="288.9" x2="66.65" y2="288.9"/></svg>