<svg id="syrup_bottle" data-name="syrup bottle" xmlns="http://www.w3.org/2000/svg" viewBox="0 0 103 440"><defs><style>.cls-1{fill:#141414;}.cls-1,.cls-2,.cls-3,.cls-4,.cls-5{stroke:#999;}.cls-1,.cls-2,.cls-3,.cls-4,.cls-5,.cls-8,.cls-9{stroke-miterlimit:10;}.cls-2{fill:#ccc;fill-opacity:0.2;}.cls-3{fill:#d4924c;fill-opacity:0.75;}.cls-4{fill:none;}.cls-5{fill:#f5f5f5;}.cls-6{font-size:31px;font-family:Parisish, Parisish;letter-spacing:-0.11em;}.cls-7{letter-spacing:0.05em;}.cls-8,.cls-9{fill:#fff;stroke:#fff;stroke-linecap:round;stroke-opacity:0.6;stroke-width:5px;}.cls-8{fill-opacity:0.6;}</style></defs><title>syrup</title><rect class="cls-1" x="47" y="10.5" width="9" height="418"/><polygon class="cls-1" points="64 12.5 39 12.5 37 0.5 66 0.5 64 12.5"/><polygon class="cls-1" points="57 15.5 46 15.5 44 7.5 59 7.5 57 15.5"/><rect class="cls-1" x="39" y="77.5" width="25" height="15"/><path class="cls-2" d="M485,378.5c8.92-14.81,14.23-28,14-28h26.5c-.23,0,5,13.2,13.78,28" transform="translate(-460.5 -239)"/><path class="cls-2" d="M563,417.92c0,.1,0,.19,0,.28v19.3H461V418.2c0-.09,0-.18,0-.28" transform="translate(-460.5 -239)"/><path class="cls-3" d="M563,599.5v39.18c0,16.47-3.35,39.82-19.82,39.82H480.82c-16.47,0-19.82-23.35-19.82-39.82V599.5Z" transform="translate(-460.5 -239)"/><rect class="cls-1" x="34" y="87.5" width="35" height="25"/><path class="cls-3" d="M563,418.2v19.3H461V418.2c0-2.78,8.25-12.74,14.85-24.2,2.9-5,6.06-10.37,9.15-15.5h54.28c3.05,5.14,6.16,10.46,9,15.5C554.82,405.46,563,415.42,563,418.2Z" transform="translate(-460.5 -239)"/><line class="cls-4" x1="51.2" y1="87.5" x2="51.2" y2="112.5"/><line class="cls-4" x1="46.2" y1="87.5" x2="46.2" y2="112.5"/><line class="cls-4" x1="41.2" y1="87.5" x2="41.2" y2="112.5"/><line class="cls-4" x1="36.2" y1="87.5" x2="36.2" y2="112.5"/><line class="cls-4" x1="61.2" y1="87.5" x2="61.2" y2="112.5"/><line class="cls-4" x1="66.2" y1="87.5" x2="66.2" y2="112.5"/><line class="cls-4" x1="56.2" y1="87.5" x2="56.2" y2="112.5"/><rect class="cls-5" x="0.5" y="198.5" width="102" height="162"/><text class="cls-6" transform="translate(10.9 260.76)">V<tspan class="cls-7" x="19.47" y="0">anilla</tspan></text><line class="cls-8" x1="9.5" y1="179" x2="74.5" y2="179"/><line class="cls-8" x1="84.5" y1="179" x2="94.5" y2="179"/><line class="cls-9" x1="7.5" y1="412.58" x2="50" y2="412.58"/><line class="cls-9" x1="58" y1="412.5" x2="67" y2="412.5"/><line class="cls-9" x1="75" y1="412.5" x2="95" y2="412.5"/></svg>