<svg id="vanilla" xmlns="http://www.w3.org/2000/svg" viewBox="0 0 72.4 308.3"><defs><style>.cls-1,.cls-2,.cls-4,.cls-5,.cls-6{stroke:#999;}.cls-1,.cls-2,.cls-4,.cls-5,.cls-6,.cls-7,.cls-8{stroke-miterlimit:10;}.cls-2{fill:#141414;}.cls-3{fill:#96b9ff;}.cls-4{fill:#ccc;fill-opacity:0.2;}.cls-5{fill:#d4924c;fill-opacity:0.75;}.cls-6{fill:none;}.cls-7,.cls-8{fill:#fff;stroke:#fff;stroke-linecap:round;stroke-opacity:0.6;stroke-width:5px;}.cls-7{fill-opacity:0.6;}</style></defs><title>vanilla</title><rect class="cls-1" x="33.05" y="7.5" width="6.3" height="46.9"/><rect class="cls-2" x="33.05" y="54.4" width="6.3" height="245.7"/><rect class="cls-3" x="0.5" y="139.1" width="71.4" height="113.4"/><polygon class="cls-2" points="44.95 8.9 27.45 8.9 26.05 0.5 46.35 0.5 44.95 8.9"/><polygon class="cls-2" points="40.05 11 32.35 11 30.95 5.4 41.45 5.4 40.05 11"/><rect class="cls-2" x="27.45" y="54.4" width="17.5" height="10.5"/><path class="cls-4" d="M717.1,340.65c6.24-10.37,10-19.6,9.8-19.6h18.55c-.16,0,3.48,9.24,9.65,19.6" transform="translate(-699.8 -242.85)"/><path class="cls-4" d="M771.69,368.24c0,.07,0,.14,0,.2V382H700.3V368.44c0-.06,0-.13,0-.2" transform="translate(-699.8 -242.85)"/><path class="cls-5" d="M771.7,495.35v27.43c0,11.52-2.34,27.87-13.87,27.87H714.17c-11.53,0-13.87-16.35-13.87-27.87V495.35Z" transform="translate(-699.8 -242.85)"/><rect class="cls-2" x="23.95" y="61.4" width="24.5" height="17.5"/><path class="cls-5" d="M771.7,368.44V382H700.3V368.44c0-1.94,5.78-8.92,10.4-16.94,2-3.53,4.24-7.26,6.4-10.85h38c2.13,3.59,4.31,7.32,6.31,10.85C766,359.52,771.7,366.49,771.7,368.44Z" transform="translate(-699.8 -242.85)"/><line class="cls-6" x1="35.99" y1="61.4" x2="35.99" y2="78.9"/><line class="cls-6" x1="32.49" y1="61.4" x2="32.49" y2="78.9"/><line class="cls-6" x1="28.99" y1="61.4" x2="28.99" y2="78.9"/><line class="cls-6" x1="25.49" y1="61.4" x2="25.49" y2="78.9"/><line class="cls-6" x1="42.99" y1="61.4" x2="42.99" y2="78.9"/><line class="cls-6" x1="46.49" y1="61.4" x2="46.49" y2="78.9"/><line class="cls-6" x1="39.49" y1="61.4" x2="39.49" y2="78.9"/><path d="M715.58,422.17c.08.18.16.28.26.28s.19-.1.27-.29L721,410.79a.28.28,0,0,1,.27-.19.31.31,0,0,1,.35.35.34.34,0,0,1,0,.15q-2.05,4.71-6.16,14.13c-.1.24-.25.36-.44.36a.43.43,0,0,1-.41-.28l-6-14.1a.56.56,0,0,1-.06-.23c0-.27.36-.39,1.1-.38s1.25.18,1.39.5Q713.7,417.72,715.58,422.17Z" transform="translate(-699.8 -242.85)"/><path d="M725.34,419.65a2.39,2.39,0,0,1,1.49.5v0a.4.4,0,0,1,.28-.44,1.93,1.93,0,0,1,.55,0,2,2,0,0,1,.55,0,.41.41,0,0,1,.29.44v4.92a.42.42,0,0,1-.28.44,2.08,2.08,0,0,1-.55,0,1.84,1.84,0,0,1-.54,0,.41.41,0,0,1-.28-.44,2.66,2.66,0,0,1-1.8.65,2.61,2.61,0,0,1-2-.81,2.83,2.83,0,0,1-.77-2,3.33,3.33,0,0,1,.84-2.34A2.83,2.83,0,0,1,725.34,419.65Zm-.09.54a2.15,2.15,0,0,0-1.66.76,2.67,2.67,0,0,0-.67,1.79,2.44,2.44,0,0,0,.61,1.69,2.07,2.07,0,0,0,1.64.69,2,2,0,0,0,1.66-.74V421A1.88,1.88,0,0,0,725.25,420.19Z" transform="translate(-699.8 -242.85)"/><path d="M737.92,421.49v3.56a.41.41,0,0,1-.29.44,2,2,0,0,1-.55,0,1.88,1.88,0,0,1-.55,0,.41.41,0,0,1-.28-.44v-4.23c0-.32-.1-.52-.3-.61a2,2,0,0,0-.62-.06,1.92,1.92,0,0,0-1.05.41c-.38.27-.57.52-.57.74v3.75a.41.41,0,0,1-.29.44,2,2,0,0,1-.55,0,1.88,1.88,0,0,1-.55,0,.41.41,0,0,1-.28-.44v-5a.41.41,0,0,1,.28-.44,2.32,2.32,0,0,1,.54,0,1.79,1.79,0,0,1,.54.05.41.41,0,0,1,.29.44c0,.14,0,.21,0,.21a1,1,0,0,0,.28-.16,3.24,3.24,0,0,1,1.74-.58,2.25,2.25,0,0,1,1.52.57A1.82,1.82,0,0,1,737.92,421.49Z" transform="translate(-699.8 -242.85)"/><path d="M742.13,425.53a1.88,1.88,0,0,1-.55,0,.42.42,0,0,1-.28-.44V420.1a.4.4,0,0,1,.28-.43,1.88,1.88,0,0,1,.55,0,1.94,1.94,0,0,1,.54,0,.39.39,0,0,1,.28.43v4.95a.41.41,0,0,1-.28.44A1.94,1.94,0,0,1,742.13,425.53Zm-.76-8.25a.78.78,0,0,1,.24-.58.76.76,0,0,1,.56-.24.81.81,0,0,1,.59.24.78.78,0,0,1,.24.58.82.82,0,0,1-.83.83.76.76,0,0,1-.56-.24A.81.81,0,0,1,741.37,417.28Z" transform="translate(-699.8 -242.85)"/><path d="M747.22,425.53a1.84,1.84,0,0,1-.55,0,.41.41,0,0,1-.29-.44V411a.4.4,0,0,1,.29-.43,1.69,1.69,0,0,1,.55-.05,1.93,1.93,0,0,1,.55.05.39.39,0,0,1,.28.43v14a.41.41,0,0,1-.28.44A2.08,2.08,0,0,1,747.22,425.53Z" transform="translate(-699.8 -242.85)"/><path d="M752.25,425.53a1.88,1.88,0,0,1-.55,0,.41.41,0,0,1-.29-.44V411a.4.4,0,0,1,.29-.43,1.73,1.73,0,0,1,.55-.05,1.88,1.88,0,0,1,.55.05.39.39,0,0,1,.28.43v14a.41.41,0,0,1-.28.44A2,2,0,0,1,752.25,425.53Z" transform="translate(-699.8 -242.85)"/><path d="M759.49,419.65a2.37,2.37,0,0,1,1.49.5v0a.41.41,0,0,1,.29-.44,1.88,1.88,0,0,1,.55,0,2,2,0,0,1,.55,0,.4.4,0,0,1,.28.44v4.92a.41.41,0,0,1-.28.44,1.94,1.94,0,0,1-.54,0,1.84,1.84,0,0,1-.54,0,.41.41,0,0,1-.28-.44,2.67,2.67,0,0,1-1.81.65,2.59,2.59,0,0,1-2-.81,2.83,2.83,0,0,1-.77-2,3.36,3.36,0,0,1,.83-2.34A2.86,2.86,0,0,1,759.49,419.65Zm-.08.54a2.14,2.14,0,0,0-1.66.76,2.62,2.62,0,0,0-.67,1.79,2.48,2.48,0,0,0,.6,1.69,2.07,2.07,0,0,0,1.64.69,2,2,0,0,0,1.66-.74V421A1.86,1.86,0,0,0,759.41,420.19Z" transform="translate(-699.8 -242.85)"/><line class="cls-7" x1="6.8" y1="125.45" x2="52.3" y2="125.45"/><line class="cls-7" x1="59.3" y1="125.45" x2="66.3" y2="125.45"/><line class="cls-8" x1="5.4" y1="288.96" x2="35.15" y2="288.96"/><line class="cls-8" x1="40.75" y1="288.9" x2="47.05" y2="288.9"/><line class="cls-8" x1="52.65" y1="288.9" x2="66.65" y2="288.9"/></svg>